<svg width="180" height="124" viewBox="0 0 180 124" fill="none" xmlns="http://www.w3.org/2000/svg">
<g clip-path="url(#clip0_3_244)">
<g clip-path="url(#clip1_3_244)">
<g clip-path="url(#clip2_3_244)">
<path d="M147.276 52.9363C147.291 52.8286 147.285 52.719 147.258 52.6136C147.231 52.5083 147.184 52.4093 147.119 52.3223C147.053 52.2353 146.972 52.162 146.878 52.1066C146.784 52.0512 146.681 52.0148 146.573 51.9994C146.496 51.988 146.417 51.988 146.34 51.9994H138.85C138.742 51.984 138.632 51.9898 138.527 52.0167C138.422 52.0436 138.323 52.0911 138.236 52.1563C138.149 52.2215 138.075 52.3032 138.02 52.3967C137.965 52.4903 137.928 52.5938 137.913 52.7015C137.901 52.7793 137.901 52.8584 137.913 52.9363V69.7909C137.898 69.8985 137.904 70.0081 137.931 70.1134C137.958 70.2187 138.005 70.3176 138.071 70.4045C138.136 70.4915 138.218 70.5647 138.312 70.62C138.405 70.6753 138.509 70.7116 138.616 70.7268C138.694 70.7375 138.772 70.7375 138.85 70.7268H146.34C146.584 70.7196 146.815 70.6178 146.985 70.443C147.154 70.2682 147.249 70.0341 147.249 69.7904C147.249 69.5467 147.154 69.3127 146.985 69.1379C146.815 68.963 146.584 68.8612 146.34 68.854H139.784V61.3635H144.466C144.709 61.3563 144.94 61.2546 145.11 61.0798C145.28 60.9049 145.375 60.6708 145.375 60.4272C145.375 60.1835 145.28 59.9494 145.11 59.7746C144.94 59.5997 144.709 59.4979 144.466 59.4907H139.784V53.8731H146.338C146.446 53.8885 146.555 53.8825 146.661 53.8556C146.766 53.8286 146.865 53.7812 146.952 53.716C147.039 53.6508 147.112 53.5692 147.167 53.4757C147.223 53.3822 147.259 53.2787 147.274 53.1711C147.285 53.0935 147.285 53.0148 147.274 52.9371L147.276 52.9363ZM132.505 69.7909V52.9363C132.509 52.811 132.488 52.6862 132.442 52.5694C132.397 52.4525 132.328 52.346 132.241 52.256C132.154 52.1661 132.049 52.0946 131.934 52.0458C131.818 51.997 131.694 51.9718 131.569 51.9718C131.444 51.9718 131.32 51.997 131.204 52.0458C131.089 52.0946 130.984 52.1661 130.897 52.256C130.81 52.346 130.741 52.4525 130.696 52.5694C130.65 52.6862 130.629 52.811 130.633 52.9363V66.1712L123.071 52.5518C122.994 52.387 122.872 52.2475 122.719 52.1496C122.566 52.0517 122.388 51.9993 122.206 51.9987C121.989 51.9676 121.768 52.0241 121.592 52.1557C121.417 52.2873 121.3 52.4834 121.269 52.7007C121.258 52.7785 121.258 52.8576 121.269 52.9355V69.79C121.277 70.0336 121.378 70.2648 121.553 70.4345C121.728 70.6042 121.962 70.6992 122.206 70.6992C122.449 70.6992 122.684 70.6042 122.858 70.4345C123.033 70.2648 123.135 70.0336 123.142 69.79V56.5404L130.746 70.2588C130.823 70.4082 130.942 70.532 131.088 70.6151C131.235 70.6982 131.402 70.737 131.569 70.7268C131.787 70.7577 132.007 70.7011 132.183 70.5694C132.358 70.4378 132.474 70.2419 132.505 70.0248C132.516 69.9472 132.516 69.8685 132.505 69.7909ZM114.609 69.7909V52.9363C114.609 52.6879 114.511 52.4498 114.335 52.2742C114.159 52.0985 113.921 51.9999 113.673 51.9999C113.425 51.9999 113.186 52.0985 113.011 52.2742C112.835 52.4498 112.737 52.6879 112.737 52.9363V69.7909C112.737 70.0392 112.835 70.2774 113.011 70.453C113.186 70.6286 113.425 70.7272 113.673 70.7272C113.921 70.7272 114.159 70.6286 114.335 70.453C114.511 70.2774 114.609 70.0392 114.609 69.7909ZM107.438 69.7909C107.453 69.6832 107.447 69.5736 107.42 69.4683C107.393 69.363 107.345 69.264 107.28 69.1771C107.215 69.0902 107.133 69.017 107.039 68.9617C106.946 68.9064 106.842 68.8701 106.734 68.8548C106.657 68.8434 106.578 68.8434 106.501 68.8548H99.9466V52.9363C99.9466 52.6879 99.848 52.4498 99.6724 52.2742C99.4968 52.0985 99.2587 51.9999 99.0103 51.9999C98.7619 51.9999 98.5237 52.0985 98.3481 52.2742C98.1725 52.4498 98.0739 52.6879 98.0739 52.9363V69.7909C98.0428 70.008 98.0992 70.2285 98.2307 70.404C98.3622 70.5795 98.5579 70.6957 98.775 70.7268C98.8529 70.7375 98.932 70.7375 99.0099 70.7268H106.5C106.718 70.7577 106.938 70.701 107.114 70.5692C107.29 70.4375 107.406 70.2414 107.437 70.024C107.448 69.9467 107.449 69.8682 107.438 69.7909ZM92.8939 53.4763C93.0062 53.3191 93.0657 53.1303 93.0641 52.9371C93.0795 52.8295 93.0735 52.7198 93.0465 52.6145C93.0195 52.5091 92.9721 52.4101 92.9068 52.3231C92.8415 52.2361 92.7598 52.1629 92.6662 52.1075C92.5726 52.0521 92.4689 52.0156 92.3613 52.0003C92.2837 51.9889 92.2048 51.9889 92.1273 52.0003C91.9738 51.9931 91.8212 52.026 91.6843 52.0957C91.5475 52.1654 91.4311 52.2696 91.3467 52.398L86.5089 59.4343L81.671 52.398C81.5865 52.2697 81.4702 52.1655 81.3333 52.0958C81.1965 52.0261 81.0439 51.9932 80.8905 52.0003C80.7828 51.9849 80.6731 51.9909 80.5678 52.018C80.4624 52.045 80.3635 52.0926 80.2765 52.158C80.1896 52.2234 80.1163 52.3052 80.0611 52.3989C80.0058 52.4926 79.9696 52.5962 79.9544 52.7039C79.9429 52.7812 79.9429 52.8598 79.9544 52.9371C79.9528 53.1303 80.0124 53.319 80.1246 53.4763L85.572 61.3644V69.7917C85.5792 70.0352 85.681 70.2664 85.8559 70.4361C86.0307 70.6058 86.2648 70.7008 86.5085 70.7008C86.7521 70.7008 86.9862 70.6058 87.161 70.4361C87.3359 70.2664 87.4377 70.0352 87.4449 69.7917V61.3644L92.8923 53.4763H92.8939ZM75.1869 69.7909V52.9363C75.1905 52.8133 75.1699 52.6908 75.1262 52.5758C75.0825 52.4608 75.0166 52.3556 74.9323 52.266C74.8479 52.1765 74.7467 52.1044 74.6345 52.054C74.5223 52.0035 74.4013 51.9757 74.2783 51.9721C74.1553 51.9684 74.0328 51.989 73.9178 52.0327C73.8028 52.0764 73.6976 52.1423 73.608 52.2267C73.5185 52.311 73.4464 52.4122 73.396 52.5244C73.3455 52.6367 73.3177 52.7577 73.3141 52.8807C73.3141 52.8995 73.3141 52.9175 73.3141 52.9363V66.1712L65.7524 52.5518C65.6757 52.3868 65.5535 52.2471 65.4001 52.1491C65.2468 52.0511 65.0687 51.999 64.8868 51.9987C64.7791 51.9833 64.6694 51.9893 64.5641 52.0164C64.4587 52.0434 64.3598 52.091 64.2728 52.1564C64.1859 52.2217 64.1127 52.3036 64.0574 52.3973C64.0021 52.4909 63.9659 52.5946 63.9507 52.7023C63.9393 52.7796 63.9393 52.8582 63.9507 52.9355V69.79C63.9579 70.0336 64.0598 70.2648 64.2346 70.4345C64.4094 70.6042 64.6435 70.6992 64.8872 70.6992C65.1308 70.6992 65.3649 70.6042 65.5398 70.4345C65.7146 70.2648 65.8164 70.0336 65.8236 69.79V56.5404L73.4277 70.2588C73.5049 70.4081 73.6238 70.5319 73.7699 70.6149C73.916 70.698 74.083 70.7369 74.2508 70.7268C74.3584 70.7422 74.468 70.7363 74.5732 70.7093C74.6785 70.6824 74.7773 70.6349 74.8643 70.5697C74.9512 70.5045 75.0244 70.4229 75.0798 70.3294C75.1351 70.2359 75.1715 70.1324 75.1869 70.0248C75.1975 69.9472 75.1975 69.8685 75.1869 69.7909ZM59.8492 61.7031C59.8495 58.4796 58.7013 55.3614 56.6108 52.9077C54.5202 50.454 51.624 48.8253 48.4413 48.3136C45.2587 47.8019 41.9978 48.4406 39.2435 50.1153C36.4891 51.7901 34.4215 54.3912 33.4112 57.4524C32.401 60.5135 32.5143 63.8344 33.7307 66.8196C34.9472 69.8047 37.1873 72.2589 40.0494 73.7421C42.9114 75.2253 46.2082 75.6404 49.3486 74.913C52.489 74.1856 55.2675 72.3633 57.186 69.7728L48.9568 53.1188C48.911 53.0296 48.8834 52.9323 48.8755 52.8324C48.8676 52.7325 48.8795 52.632 48.9105 52.5367C48.9416 52.4414 48.9912 52.3532 49.0566 52.2773C49.1219 52.2013 49.2016 52.1389 49.2912 52.0939C49.3807 52.0488 49.4783 52.022 49.5782 52.0148C49.6782 52.0077 49.7785 52.0204 49.8735 52.0522C49.9686 52.0841 50.0564 52.1344 50.1318 52.2003C50.2073 52.2663 50.269 52.3465 50.3133 52.4364L50.3182 52.4462L58.145 68.2846C59.2651 66.2717 59.8518 64.0058 59.8492 61.7023V61.7031ZM43.2237 65.7122C43.3132 65.7562 43.3931 65.8174 43.4588 65.8923C43.5246 65.9672 43.575 66.0544 43.607 66.1487C43.6391 66.2431 43.6522 66.3429 43.6457 66.4423C43.6392 66.5418 43.6131 66.639 43.569 66.7284L41.8182 70.2793C41.7557 70.4057 41.6593 70.5122 41.5398 70.5871C41.4203 70.6619 41.2825 70.7021 41.1415 70.7031H41.1308C41.0022 70.7023 40.876 70.6688 40.7639 70.6057C40.6518 70.5427 40.5576 70.4522 40.4901 70.3427C40.4226 70.2333 40.3841 70.1084 40.3781 69.98C40.3721 69.8515 40.3988 69.7237 40.4559 69.6084L42.2068 66.0575C42.2508 65.968 42.312 65.8882 42.3869 65.8224C42.4618 65.7566 42.5489 65.7063 42.6432 65.6742C42.7376 65.6422 42.8374 65.629 42.9369 65.6355C43.0363 65.642 43.1343 65.6681 43.2237 65.7122ZM48.7473 56.2409L45.3412 63.1423H51.9947C52.0944 63.1419 52.1932 63.1612 52.2854 63.199C52.3777 63.2368 52.4617 63.2924 52.5324 63.3627C52.6032 63.4329 52.6594 63.5164 52.6979 63.6084C52.7364 63.7003 52.7565 63.799 52.7569 63.8987C52.7572 63.9984 52.7379 64.0972 52.7001 64.1895C52.6623 64.2817 52.6067 64.3657 52.5364 64.4364C52.4662 64.5072 52.3827 64.5635 52.2907 64.602C52.1988 64.6405 52.1001 64.6605 52.0004 64.6608H44.1188C43.9898 64.6607 43.8629 64.6277 43.7502 64.5649C43.6374 64.5021 43.5427 64.4116 43.4746 64.3019C43.4066 64.1923 43.3676 64.0671 43.3614 63.9382C43.3551 63.8094 43.3818 63.681 43.439 63.5653L47.3858 55.5684C47.4275 55.4757 47.4873 55.3923 47.5617 55.3231C47.6362 55.2539 47.7237 55.2004 47.8192 55.1657C47.9147 55.131 48.0163 55.1158 48.1177 55.1211C48.2192 55.1263 48.3186 55.1519 48.4101 55.1963C48.5015 55.2406 48.5831 55.3029 48.65 55.3794C48.7169 55.4559 48.7678 55.545 48.7996 55.6415C48.8314 55.738 48.8435 55.8399 48.8352 55.9412C48.827 56.0425 48.7985 56.1411 48.7514 56.2311L48.7473 56.2409Z" fill="white"/>
</g>
</g>
</g>
<defs>
<clipPath id="clip0_3_244">
<rect width="180" height="123.72" fill="white" transform="translate(0 0.189941)"/>
</clipPath>
<clipPath id="clip1_3_244">
<rect width="180" height="123.72" fill="white" transform="translate(0 0.189941)"/>
</clipPath>
<clipPath id="clip2_3_244">
<rect width="180" height="122.727" fill="white" transform="translate(0 0.686523)"/>
</clipPath>
</defs>
</svg>
