<svg width="73" height="73" viewBox="0 0 73 73" fill="none" xmlns="http://www.w3.org/2000/svg">
<g clip-path="url(#clip0_3_172)">
<g clip-path="url(#clip1_3_172)">
<g clip-path="url(#clip2_3_172)">
<path d="M46.1272 6.28369H26.8941C25.3322 6.28542 23.8349 6.90663 22.7305 8.01101C21.6261 9.1154 21.0049 10.6128 21.0032 12.1746V61.3159C21.0049 62.8778 21.6261 64.3751 22.7305 65.4795C23.8349 66.5839 25.3322 67.2051 26.8941 67.2068H46.1272C47.6891 67.2051 49.1865 66.5839 50.2908 65.4795C51.3952 64.3751 52.0164 62.8778 52.0182 61.3159V12.1746C52.0164 10.6128 51.3952 9.1154 50.2908 8.01101C49.1865 6.90663 47.6891 6.28542 46.1272 6.28369ZM50.7091 61.3159C50.7077 62.5307 50.2245 63.6953 49.3656 64.5542C48.5066 65.4132 47.342 65.8963 46.1272 65.8977H26.8941C25.6793 65.8963 24.5147 65.4132 23.6558 64.5542C22.7968 63.6953 22.3136 62.5307 22.3123 61.3159V12.1746C22.3136 10.9599 22.7968 9.79525 23.6558 8.9363C24.5147 8.07734 25.6793 7.59417 26.8941 7.59278H30.4182V8.29773C30.4182 8.33962 30.4267 8.37955 30.4306 8.42078C30.4603 8.74443 30.6096 9.04536 30.8494 9.26471C31.0892 9.48407 31.4022 9.60606 31.7272 9.60682H40.7397C41.0869 9.60682 41.4198 9.4689 41.6653 9.22339C41.9109 8.97789 42.0488 8.64492 42.0488 8.29773V7.59278H46.1272C47.342 7.59417 48.5066 8.07734 49.3656 8.9363C50.2245 9.79525 50.7077 10.9599 50.7091 12.1746V61.3159ZM38.0822 30.0764L39.3121 30.5241L34.835 42.825L33.6051 42.3773L38.0822 30.0764ZM32.3916 32.8818L28.9271 36.3463L32.3916 39.8108L31.4661 40.7363L27.076 36.3463L31.4661 31.9563L32.3916 32.8818ZM41.5552 31.9563L45.9453 36.3463L41.5552 40.7363L40.6297 39.8108L44.0942 36.3463L40.6297 32.8818L41.5552 31.9563Z" fill="#2667FF"/>
</g>
</g>
</g>
<defs>
<clipPath id="clip0_3_172">
<rect width="72" height="72" fill="white" transform="translate(0.51001 0.189941)"/>
</clipPath>
<clipPath id="clip1_3_172">
<rect width="72" height="72" fill="white" transform="translate(0.51001 0.189941)"/>
</clipPath>
<clipPath id="clip2_3_172">
<rect width="72" height="72" fill="white" transform="translate(0.51001 0.189941)"/>
</clipPath>
</defs>
</svg>
