<svg width="180" height="124" viewBox="0 0 180 124" fill="none" xmlns="http://www.w3.org/2000/svg">
<g clip-path="url(#clip0_3_258)">
<g clip-path="url(#clip1_3_258)">
<g clip-path="url(#clip2_3_258)">
<path d="M42.084 77.2825C41.8884 77.2825 41.7321 77.4224 41.7321 77.6965V83.9147C41.7321 84.2076 41.8573 84.3606 42.084 84.3606C42.3106 84.3606 42.4358 84.2076 42.4358 83.9147V78.5613H42.4677L46.278 84.1061C46.3958 84.2698 46.4751 84.3614 46.6625 84.3614C46.8498 84.3614 46.9824 84.2477 46.9824 83.9155V77.7251C46.9824 77.4306 46.8556 77.2792 46.6306 77.2792C46.4056 77.2792 46.2788 77.4306 46.2788 77.7251V82.9861H46.2485L42.5029 77.5369C42.4605 77.4628 42.4002 77.4005 42.3274 77.3559C42.2546 77.3113 42.1717 77.2857 42.0864 77.2817L42.084 77.2825ZM64.6559 77.2825C62.5941 77.2825 61.614 79.0899 61.614 80.8195C61.614 82.6089 62.4755 84.3565 64.6559 84.3565C66.1892 84.3565 67.5057 83.612 67.5057 80.9152C67.5057 80.6313 67.4239 80.3736 66.9329 80.3736H65.5519C65.4678 80.3671 65.3846 80.394 65.3203 80.4485C65.256 80.503 65.2158 80.5807 65.2085 80.6647C65.2012 80.7487 65.2273 80.8322 65.2812 80.897C65.335 80.9619 65.4123 81.0028 65.4962 81.011C65.5147 81.0126 65.5334 81.0126 65.5519 81.011H66.8012C66.8012 82.4092 66.2432 83.72 64.7198 83.72C63.1202 83.72 62.3471 82.3945 62.3471 80.8203C62.3471 79.4818 63.054 77.9207 64.6846 77.9207C65.8824 77.9207 66.3455 78.7176 66.6695 78.7176C66.7632 78.7176 66.8531 78.6803 66.9194 78.6141C66.9857 78.5478 67.0229 78.4579 67.0229 78.3641V78.3355C67.0229 78.0426 66.0289 77.2842 64.6502 77.2842L64.6559 77.2825ZM70.1312 77.2825C69.9046 77.2825 69.7794 77.4355 69.7794 77.7284V83.9106C69.7794 84.2052 69.9046 84.3565 70.1312 84.3565C70.3579 84.3565 70.483 84.2052 70.483 83.9106V77.7251C70.483 77.4355 70.357 77.2825 70.1312 77.2825ZM84.3152 77.2825C83.8206 77.2441 83.331 77.4034 82.9537 77.7255C82.5764 78.0476 82.3422 78.5062 82.3025 79.0007C82.3025 79.0219 82.3025 79.0424 82.2984 79.0637C82.2984 81.1746 85.5965 80.5151 85.5965 82.1867C85.5849 82.6011 85.4103 82.9943 85.1104 83.2806C84.8106 83.5669 84.4098 83.7234 83.9953 83.7159C83.5845 83.6904 83.1873 83.5587 82.8425 83.3338C82.7516 83.2528 82.6414 83.1965 82.5226 83.1701C82.4303 83.1726 82.3425 83.2103 82.2771 83.2754C82.2117 83.3405 82.1737 83.4281 82.1708 83.5203C82.1708 83.9016 82.9325 84.3491 84.0918 84.3491C84.6552 84.3797 85.2075 84.1852 85.6275 83.8085C86.0474 83.4319 86.3006 82.9038 86.3312 82.3405C86.3312 82.2767 86.3353 82.2137 86.3312 82.1507C86.3312 79.9212 83.0012 80.5307 83.0012 78.9958C83.0208 78.6887 83.1615 78.402 83.3924 78.1987C83.6233 77.9954 83.9255 77.8922 84.2326 77.9117H84.2497C84.9967 77.9117 85.2316 78.3895 85.5949 78.3895C85.6821 78.381 85.763 78.3405 85.822 78.2758C85.8811 78.2112 85.9142 78.1269 85.9148 78.0393C85.9148 77.7063 85.0786 77.2743 84.3128 77.2743L84.3152 77.2825ZM99.7789 77.2825C99.5539 77.2825 99.4271 77.4355 99.4271 77.7284V83.9106C99.4271 84.2052 99.5539 84.3565 99.7789 84.3565C100.004 84.3565 100.131 84.2052 100.131 83.9106V77.7251C100.131 77.4355 100.003 77.2825 99.7789 77.2825ZM116.363 77.2825C116.28 77.2691 116.195 77.2722 116.113 77.2918C116.03 77.3114 115.953 77.3469 115.885 77.3965C115.816 77.446 115.758 77.5086 115.714 77.5806C115.67 77.6526 115.64 77.7325 115.627 77.816V77.8241L114.795 83.4009C114.765 83.5768 114.699 83.949 114.699 84.0382C114.69 84.1136 114.712 84.1895 114.758 84.2492C114.805 84.3089 114.874 84.3475 114.95 84.3565C114.973 84.3598 114.996 84.3598 115.019 84.3565C115.274 84.3565 115.364 84.1928 115.404 83.9425L116.269 78.0516H116.3L118.093 84.0104C118.163 84.2248 118.239 84.3606 118.445 84.3606C118.651 84.3606 118.753 84.2354 118.861 83.8828L120.622 78.0516H120.654L121.521 83.9474C121.56 84.2011 121.651 84.3614 121.906 84.3614C121.981 84.3709 122.056 84.3505 122.116 84.3045C122.176 84.2586 122.216 84.1908 122.226 84.116C122.229 84.0929 122.229 84.0695 122.226 84.0464C122.226 83.9572 122.159 83.585 122.13 83.409L121.298 77.8323C121.286 77.7489 121.257 77.6686 121.214 77.5961C121.171 77.5237 121.114 77.4604 121.046 77.4101C120.979 77.3597 120.902 77.3231 120.82 77.3025C120.738 77.2819 120.653 77.2776 120.57 77.2899H120.562C120.276 77.2899 120.138 77.4428 120.049 77.7358L118.482 83.1497H118.45L116.881 77.7325C116.793 77.4396 116.655 77.2866 116.369 77.2866L116.363 77.2825ZM126.929 77.2825C126.576 77.2825 126.474 77.5681 126.385 77.7922L124.144 83.783C124.107 83.8742 124.086 83.971 124.08 84.0693C124.081 84.108 124.09 84.1461 124.105 84.1815C124.121 84.2169 124.143 84.249 124.171 84.2757C124.199 84.3025 124.232 84.3234 124.268 84.3374C124.304 84.3514 124.343 84.3582 124.382 84.3573H124.4C124.646 84.3573 124.697 84.2141 124.785 84.0391L125.233 82.7963H128.627L129.107 84.0391C129.175 84.215 129.247 84.3573 129.492 84.3573C129.53 84.3608 129.569 84.3567 129.606 84.3451C129.643 84.3335 129.677 84.3147 129.707 84.2898C129.737 84.265 129.761 84.2345 129.779 84.2002C129.797 84.1659 129.808 84.1283 129.811 84.0898V84.0701C129.807 83.9716 129.785 83.8746 129.747 83.7838L127.474 77.793C127.385 77.568 127.283 77.2825 126.929 77.2825ZM138.776 77.2825C138.549 77.2825 138.424 77.4355 138.424 77.7284V83.9106C138.424 84.2035 138.549 84.3565 138.776 84.3565C139.002 84.3565 139.128 84.2035 139.128 83.9106V80.916L142.521 84.1348C142.572 84.1985 142.635 84.2512 142.707 84.2896C142.778 84.328 142.857 84.3514 142.938 84.3582C142.98 84.3584 143.021 84.3503 143.06 84.3344C143.099 84.3185 143.134 84.2951 143.164 84.2655C143.194 84.2359 143.217 84.2008 143.233 84.1621C143.25 84.1233 143.258 84.0818 143.258 84.0399C143.252 83.9832 143.235 83.9285 143.206 83.879C143.178 83.8296 143.14 83.7865 143.094 83.7527L139.796 80.5978L142.838 77.8896C142.89 77.8546 142.932 77.8071 142.961 77.7514C142.989 77.6958 143.003 77.6338 143.002 77.5713C143.006 77.4997 142.982 77.4294 142.934 77.3757C142.887 77.322 142.82 77.2894 142.748 77.285H142.714C142.541 77.297 142.379 77.3774 142.265 77.5083L139.128 80.3122V77.7251C139.128 77.4322 139.001 77.2792 138.776 77.2792V77.2825ZM36.225 77.3463C36.0613 77.3938 36.0008 77.51 36.0008 77.6965V83.9147C36.0008 84.1601 36.135 84.2968 36.4491 84.2968H38.8497C38.8977 84.308 38.9476 84.3082 38.9958 84.2974C39.0439 84.2867 39.0889 84.2652 39.1276 84.2345C39.1662 84.2039 39.1974 84.1649 39.2188 84.1205C39.2403 84.0761 39.2514 84.0274 39.2514 83.9781C39.2514 83.9288 39.2403 83.8801 39.2188 83.8357C39.1974 83.7913 39.1662 83.7523 39.1276 83.7217C39.0889 83.6911 39.0439 83.6695 38.9958 83.6587C38.9476 83.6479 38.8977 83.6482 38.8497 83.6594H36.7044V81.1419H38.6574C38.6992 81.1517 38.7427 81.1532 38.7851 81.1463C38.8275 81.1393 38.8681 81.1241 38.9047 81.1015C38.9412 81.0788 38.973 81.0492 38.9981 81.0143C39.0232 80.9794 39.0411 80.9399 39.0509 80.8981C39.0608 80.8562 39.0623 80.8128 39.0553 80.7704C39.0484 80.728 39.0332 80.6873 39.0105 80.6508C38.9879 80.6142 38.9583 80.5825 38.9234 80.5574C38.8885 80.5323 38.849 80.5143 38.8072 80.5045C38.7579 80.4929 38.7066 80.4929 38.6574 80.5045H36.7371V77.9869H38.754C38.8385 78.0068 38.9274 77.9923 39.0012 77.9465C39.075 77.9008 39.1276 77.8277 39.1475 77.7431C39.1673 77.6586 39.1528 77.5697 39.1071 77.4958C39.0614 77.422 38.9882 77.3694 38.9037 77.3496C38.8544 77.338 38.8032 77.338 38.754 77.3496H36.4483C36.3738 77.3418 36.2986 77.3418 36.2241 77.3496L36.225 77.3463ZM49.896 77.3463C49.8186 77.3648 49.7504 77.4101 49.7035 77.4743C49.6566 77.5384 49.634 77.6172 49.6399 77.6965V83.9147C49.6399 84.1601 49.774 84.2968 50.0882 84.2968H52.4896C52.5376 84.308 52.5875 84.3082 52.6356 84.2974C52.6838 84.2867 52.7288 84.2652 52.7675 84.2345C52.8061 84.2039 52.8373 84.1649 52.8588 84.1205C52.8802 84.0761 52.8914 84.0274 52.8914 83.9781C52.8914 83.9288 52.8802 83.8801 52.8588 83.8357C52.8373 83.7913 52.8061 83.7523 52.7675 83.7217C52.7288 83.6911 52.6838 83.6695 52.6356 83.6587C52.5875 83.6479 52.5376 83.6482 52.4896 83.6594H50.3443V81.1419H52.3292C52.4137 81.1493 52.4978 81.123 52.5628 81.0685C52.6279 81.014 52.6687 80.9359 52.6761 80.8514C52.6836 80.7669 52.6572 80.6829 52.6027 80.6178C52.5483 80.5528 52.4702 80.512 52.3857 80.5045C52.3669 80.5029 52.348 80.5029 52.3292 80.5045H50.3762V77.9869H52.393C52.4776 78.0068 52.5665 77.9923 52.6403 77.9465C52.7141 77.9008 52.7667 77.8277 52.7866 77.7431C52.8065 77.6586 52.7919 77.5697 52.7462 77.4958C52.7005 77.422 52.6273 77.3694 52.5428 77.3496C52.4935 77.338 52.4423 77.338 52.393 77.3496H50.0882C50.0244 77.3414 49.9598 77.3414 49.896 77.3496V77.3463ZM55.6232 77.3463C55.5461 77.3651 55.478 77.4105 55.4312 77.4746C55.3843 77.5387 55.3616 77.6173 55.3671 77.6965V83.9147C55.3671 84.2092 55.525 84.3606 55.7517 84.3606C55.9783 84.3606 56.1035 84.2092 56.1035 83.9147V81.2065L58.8853 84.2019C58.9227 84.2517 58.9709 84.2924 59.0263 84.3207C59.0818 84.3491 59.143 84.3644 59.2052 84.3655C59.2856 84.3695 59.3644 84.3416 59.4243 84.2878C59.4843 84.234 59.5205 84.1587 59.5251 84.0783C59.5237 84.0163 59.5083 83.9555 59.48 83.9003C59.4516 83.8452 59.4111 83.7972 59.3615 83.7601L56.9601 81.2106H57.6008C57.8435 81.2124 58.0842 81.1664 58.3091 81.0752C58.5341 80.9841 58.7389 80.8494 58.9118 80.6791C59.0847 80.5088 59.2224 80.306 59.317 80.0825C59.4115 79.8589 59.4611 79.6189 59.4629 79.3762C59.4629 79.3288 59.463 79.2821 59.4581 79.2347C59.4538 78.982 59.3998 78.7327 59.2991 78.5009C59.1984 78.2691 59.053 78.0593 58.8713 77.8837C58.6895 77.7081 58.475 77.5701 58.2399 77.4775C58.0047 77.3848 57.7536 77.3394 57.5009 77.3439C57.4494 77.3439 57.397 77.348 57.3447 77.3529H55.8212C55.7574 77.3447 55.6928 77.3447 55.629 77.3529L55.6232 77.3463ZM73.3925 77.3463C73.2289 77.3938 73.1683 77.51 73.1683 77.6965V83.9147C73.1683 84.1601 73.2706 84.2968 73.5848 84.2968H76.0221C76.0663 84.3007 76.1109 84.2953 76.1529 84.2811C76.1949 84.2668 76.2335 84.244 76.2662 84.214C76.299 84.184 76.3251 84.1476 76.3429 84.107C76.3608 84.0664 76.3701 84.0225 76.3701 83.9781C76.3701 83.9337 76.3608 83.8899 76.3429 83.8492C76.3251 83.8086 76.299 83.7721 76.2662 83.7422C76.2335 83.7122 76.1949 83.6894 76.1529 83.6751C76.1109 83.6609 76.0663 83.6555 76.0221 83.6594H73.8769V81.1419H75.8299C75.8741 81.1457 75.9186 81.1404 75.9606 81.1261C76.0026 81.1119 76.0412 81.089 76.0739 81.0591C76.1066 81.0291 76.1328 80.9927 76.1507 80.952C76.1686 80.9114 76.1777 80.8675 76.1777 80.8232C76.1777 80.7788 76.1686 80.7349 76.1507 80.6943C76.1328 80.6537 76.1066 80.6173 76.0739 80.5873C76.0412 80.5573 76.0026 80.5345 75.9606 80.5202C75.9186 80.506 75.8741 80.5006 75.8299 80.5045H73.8769V77.9869H75.8937C75.9782 78.0068 76.0671 77.9923 76.1409 77.9465C76.2147 77.9008 76.2674 77.8277 76.2872 77.7431C76.3071 77.6586 76.2925 77.5697 76.2468 77.4958C76.2011 77.422 76.1279 77.3694 76.0434 77.3496C75.9942 77.338 75.9429 77.338 75.8937 77.3496H73.5889C73.525 77.3414 73.4604 77.3414 73.3966 77.3496L73.3925 77.3463ZM88.2834 77.3463C88.2354 77.3351 88.1855 77.3349 88.1374 77.3456C88.0892 77.3564 88.0442 77.378 88.0055 77.4086C87.9669 77.4393 87.9357 77.4782 87.9142 77.5226C87.8928 77.567 87.8816 77.6157 87.8816 77.665C87.8816 77.7143 87.8928 77.763 87.9142 77.8074C87.9357 77.8518 87.9669 77.8908 88.0055 77.9214C88.0442 77.9521 88.0892 77.9736 88.1374 77.9843C88.1855 77.9951 88.2354 77.9949 88.2834 77.9837H89.6285V83.9106C89.6285 84.2035 89.7553 84.3565 89.9803 84.3565C90.2053 84.3565 90.3321 84.2035 90.3321 83.9106V77.9837H91.6772C91.7252 77.9949 91.7752 77.9951 91.8233 77.9843C91.8714 77.9736 91.9165 77.9521 91.9551 77.9214C91.9937 77.8908 92.0249 77.8518 92.0464 77.8074C92.0679 77.763 92.079 77.7143 92.079 77.665C92.079 77.6157 92.0679 77.567 92.0464 77.5226C92.0249 77.4782 91.9937 77.4393 91.9551 77.4086C91.9165 77.378 91.8714 77.3564 91.8233 77.3456C91.7752 77.3349 91.7252 77.3351 91.6772 77.3463H88.2834ZM93.9182 77.3463C93.7546 77.3938 93.694 77.51 93.694 77.6965V83.9147C93.694 84.1601 93.8282 84.2968 94.1424 84.2968H96.5438C96.5918 84.308 96.6417 84.3082 96.6898 84.2974C96.7379 84.2867 96.783 84.2652 96.8217 84.2345C96.8603 84.2039 96.8915 84.1649 96.9129 84.1205C96.9344 84.0761 96.9455 84.0274 96.9455 83.9781C96.9455 83.9288 96.9344 83.8801 96.9129 83.8357C96.8915 83.7913 96.8603 83.7523 96.8217 83.7217C96.783 83.6911 96.7379 83.6695 96.6898 83.6587C96.6417 83.6479 96.5918 83.6482 96.5438 83.6594H94.4001V81.1419H96.3531C96.395 81.1517 96.4384 81.1532 96.4808 81.1463C96.5232 81.1393 96.5638 81.1241 96.6004 81.1015C96.6369 81.0788 96.6687 81.0492 96.6938 81.0143C96.7189 80.9794 96.7369 80.9399 96.7467 80.8981C96.7565 80.8562 96.758 80.8128 96.7511 80.7704C96.7442 80.728 96.7289 80.6873 96.7063 80.6508C96.6837 80.6142 96.654 80.5825 96.6191 80.5574C96.5842 80.5323 96.5447 80.5143 96.5029 80.5045C96.4536 80.4929 96.4024 80.4929 96.3531 80.5045H94.432V77.9869H96.4489C96.5334 78.0068 96.6223 77.9923 96.6961 77.9465C96.7699 77.9008 96.8226 77.8277 96.8424 77.7431C96.8623 77.6586 96.8477 77.5697 96.802 77.4958C96.7563 77.422 96.6831 77.3694 96.5986 77.3496C96.5493 77.338 96.4981 77.338 96.4489 77.3496H94.144C94.0695 77.3418 93.9944 77.3418 93.9199 77.3496L93.9182 77.3463ZM103.043 77.3463C102.88 77.3938 102.819 77.51 102.819 77.6965V83.9147C102.819 84.1601 102.921 84.2968 103.236 84.2968H105.669C105.753 84.3043 105.837 84.2779 105.903 84.2234C105.968 84.1689 106.008 84.0908 106.016 84.0063C106.023 83.9218 105.997 83.8377 105.943 83.7727C105.888 83.7076 105.81 83.6669 105.725 83.6594C105.707 83.6578 105.688 83.6578 105.669 83.6594H103.521V81.1419H105.473C105.517 81.1457 105.561 81.1404 105.603 81.1261C105.645 81.1119 105.684 81.089 105.717 81.0591C105.749 81.0291 105.776 80.9927 105.793 80.952C105.811 80.9114 105.821 80.8675 105.821 80.8232C105.821 80.7788 105.811 80.7349 105.793 80.6943C105.776 80.6537 105.749 80.6173 105.717 80.5873C105.684 80.5573 105.645 80.5345 105.603 80.5202C105.561 80.506 105.517 80.5006 105.473 80.5045H103.52V77.9869H105.565C105.65 77.9944 105.734 77.9681 105.799 77.9136C105.864 77.8591 105.904 77.781 105.912 77.6965C105.919 77.612 105.893 77.528 105.839 77.4629C105.784 77.3978 105.706 77.3571 105.622 77.3496C105.603 77.348 105.584 77.348 105.565 77.3496H103.235C103.171 77.3414 103.106 77.3414 103.043 77.3496L103.043 77.3463ZM108.771 77.3463C108.697 77.3669 108.633 77.414 108.592 77.4786C108.55 77.5432 108.534 77.6208 108.547 77.6965V83.9147C108.547 84.2092 108.673 84.3606 108.898 84.3606C109.123 84.3606 109.25 84.2092 109.25 83.9147V81.2065L112.032 84.2019C112.069 84.2517 112.118 84.2924 112.173 84.3207C112.228 84.3491 112.29 84.3644 112.352 84.3655C112.432 84.3697 112.511 84.3419 112.571 84.288C112.631 84.2342 112.667 84.1588 112.672 84.0783C112.677 84.0189 112.668 83.959 112.646 83.9036C112.624 83.8483 112.589 83.799 112.543 83.7601L110.11 81.2106H110.751C110.997 81.2131 111.241 81.1671 111.469 81.0752C111.697 80.9833 111.905 80.8474 112.081 80.6751C112.257 80.5029 112.397 80.2977 112.493 80.0713C112.59 79.845 112.641 79.6018 112.643 79.3558C112.643 79.3149 112.643 79.274 112.643 79.2347C112.639 78.982 112.585 78.7327 112.484 78.5009C112.383 78.2691 112.238 78.0593 112.056 77.8837C111.875 77.7081 111.66 77.5701 111.425 77.4775C111.19 77.3848 110.939 77.3394 110.686 77.3439C110.635 77.3439 110.582 77.348 110.53 77.3529H109.006C108.931 77.3443 108.854 77.3443 108.779 77.3529L108.771 77.3463ZM132.208 77.3463C132.13 77.3651 132.062 77.4105 132.015 77.4746C131.969 77.5387 131.946 77.6173 131.951 77.6965V83.9147C131.951 84.2092 132.077 84.3606 132.303 84.3606C132.53 84.3606 132.655 84.2092 132.655 83.9147V81.2065L135.473 84.2019C135.51 84.2517 135.558 84.2924 135.614 84.3207C135.669 84.3491 135.73 84.3644 135.793 84.3655C135.829 84.3669 135.866 84.3611 135.9 84.3484C135.934 84.3357 135.966 84.3164 135.992 84.2915C136.019 84.2667 136.041 84.2368 136.056 84.2036C136.071 84.1703 136.079 84.1344 136.081 84.0979C136.082 84.0914 136.082 84.0848 136.081 84.0783C136.086 84.0189 136.077 83.959 136.055 83.9036C136.033 83.8483 135.998 83.799 135.952 83.7601L133.551 81.2106H134.192C134.434 81.2124 134.675 81.1664 134.9 81.0752C135.125 80.9841 135.33 80.8494 135.503 80.6791C135.676 80.5088 135.813 80.306 135.908 80.0825C136.002 79.8589 136.052 79.6189 136.054 79.3762C136.054 79.3288 136.054 79.2821 136.049 79.2347C136.045 78.982 135.991 78.7327 135.89 78.5009C135.789 78.2691 135.644 78.0593 135.462 77.8837C135.28 77.7081 135.066 77.5701 134.831 77.4775C134.596 77.3848 134.344 77.3394 134.092 77.3439C134.04 77.3439 133.988 77.348 133.936 77.3529H132.403C132.339 77.3447 132.275 77.3447 132.211 77.3529L132.208 77.3463ZM56.1027 77.9837H57.3193C58.2725 77.9837 58.7601 78.4451 58.7601 79.3541C58.7601 80.1723 58.243 80.5969 57.3193 80.5969H56.1068L56.1027 77.9837ZM109.251 77.9837H110.478C111.431 77.9837 111.951 78.4451 111.951 79.3541C111.951 80.1723 111.4 80.5969 110.478 80.5969H109.258V77.9837H109.251ZM132.656 77.9837H133.904C134.856 77.9837 135.345 78.4451 135.345 79.3541C135.345 80.1723 134.826 80.5969 133.904 80.5969H132.656V77.9837ZM126.929 78.2071H126.96L128.401 82.1261H125.488L126.929 78.2071ZM101.283 65.7601H77.4319C76.8636 65.7634 76.3163 65.546 75.9051 65.1538C75.7054 64.9651 75.5464 64.7377 75.4376 64.4855C75.3289 64.2332 75.2727 63.9615 75.2727 63.6868V42.0303C75.273 41.7561 75.3292 41.4849 75.4378 41.2331C75.5464 40.9813 75.7052 40.7542 75.9043 40.5658C76.3158 40.1734 76.8634 39.9561 77.4319 39.9595H101.283C101.85 39.9562 102.397 40.1736 102.808 40.5658C103.007 40.7538 103.166 40.9806 103.275 41.2323C103.384 41.484 103.44 41.7553 103.44 42.0295V63.6868C103.44 63.961 103.384 64.2323 103.275 64.484C103.167 64.7357 103.007 64.9625 102.808 65.1505C102.398 65.544 101.851 65.7626 101.283 65.7601ZM84.1319 43.7829C83.4334 43.769 82.7353 43.8254 82.048 43.9514C81.5788 44.0311 81.1354 44.2215 80.7545 44.507C80.4344 44.7706 80.2014 45.1248 80.086 45.5231C79.9454 46.0314 79.8822 46.558 79.8987 47.085V58.8382C79.8822 59.3653 79.9454 59.8919 80.086 60.4001C80.2005 60.8 80.4336 61.1558 80.7545 61.4204C81.1362 61.7066 81.5809 61.8971 82.0513 61.976C82.7385 62.102 83.4367 62.1583 84.1352 62.1437H96.1298C96.573 62.1528 97.0155 62.106 97.447 62.0046C97.7494 61.9364 98.0316 61.7983 98.271 61.6012C98.4697 61.405 98.622 61.1668 98.7166 60.904C98.8112 60.6412 98.8457 60.3605 98.8175 60.0827C98.8463 59.7871 98.8087 59.4889 98.7075 59.2098C98.6062 58.9307 98.444 58.6776 98.2325 58.4692C97.5901 58.0216 96.8093 57.8171 96.0299 57.8924H86.6208C86.5829 57.891 86.5469 57.8753 86.52 57.8484C86.4932 57.8215 86.4774 57.7855 86.476 57.7476V54.8701C86.4774 54.8321 86.4932 54.7961 86.52 54.7692C86.5469 54.7424 86.5829 54.7267 86.6208 54.7252H94.1727C94.8846 54.786 95.5957 54.6002 96.187 54.1991C96.397 54.0112 96.5605 53.7772 96.6647 53.5154C96.7689 53.2536 96.811 52.9712 96.7876 52.6904C96.7968 52.389 96.7496 52.0885 96.6485 51.8043C96.5569 51.5606 96.3955 51.3492 96.1846 51.1964C95.5233 50.8248 94.7643 50.6638 94.0091 50.735H86.6168C86.5787 50.7337 86.5426 50.7181 86.5157 50.6912C86.4888 50.6643 86.4732 50.6282 86.4719 50.5901V48.1004C86.4734 48.0625 86.4891 48.0265 86.5159 47.9996C86.5428 47.9727 86.5788 47.957 86.6168 47.9556H95.6617C96.4169 48.0293 97.1742 47.8387 97.8046 47.4164C98.0024 47.2244 98.1543 46.9901 98.2489 46.7311C98.3436 46.4722 98.3785 46.1952 98.3512 45.9208C98.3798 45.631 98.3422 45.3384 98.2411 45.0653C98.14 44.7921 97.9782 44.5455 97.7678 44.3442C97.1204 43.907 96.3412 43.7085 95.5636 43.7829H84.1319Z" fill="white"/>
</g>
</g>
</g>
<defs>
<clipPath id="clip0_3_258">
<rect width="180" height="123.72" fill="white" transform="translate(0 0.189941)"/>
</clipPath>
<clipPath id="clip1_3_258">
<rect width="180" height="123.72" fill="white" transform="translate(0 0.189941)"/>
</clipPath>
<clipPath id="clip2_3_258">
<rect width="180" height="122.727" fill="white" transform="translate(0 0.686523)"/>
</clipPath>
</defs>
</svg>
