<svg viewBox="0 0 100 100" xmlns="http://www.w3.org/2000/svg">
  <!-- First quotation mark -->
  <path d="M30 65C25.5 65 21.8 63.4 18.9 60.2C16 57 14.5 53 14.5 48.2C14.5 43.4 16.2 39.2 19.6 35.6C23 32 27.2 30.2 32.2 30.2C37.2 30.2 41.4 32 44.8 35.6C48.2 39.2 49.9 43.6 49.9 48.8C49.9 54 48.2 58.8 44.8 63.2C41.4 67.6 37.2 70.8 32.2 72.8L30 65Z" fill="#444444" fill-opacity="0.7"/>
  
  <!-- Second quotation mark -->
  <path d="M70 65C65.5 65 61.8 63.4 58.9 60.2C56 57 54.5 53 54.5 48.2C54.5 43.4 56.2 39.2 59.6 35.6C63 32 67.2 30.2 72.2 30.2C77.2 30.2 81.4 32 84.8 35.6C88.2 39.2 89.9 43.6 89.9 48.8C89.9 54 88.2 58.8 84.8 63.2C81.4 67.6 77.2 70.8 72.2 72.8L70 65Z" fill="#444444" fill-opacity="0.7"/>
</svg>