<svg width="180" height="125" viewBox="0 0 180 125" fill="none" xmlns="http://www.w3.org/2000/svg">
<g clip-path="url(#clip0_3_300)">
<g clip-path="url(#clip1_3_300)">
<g clip-path="url(#clip2_3_300)">
<path d="M71.1835 60.769C71.8069 58.0903 72.2708 56.0947 72.2708 56.0947L66.4756 56.0751L65.2295 61.5201C67.023 61.246 69.0423 60.9965 71.1835 60.769ZM78.2959 60.1153C79.7924 59.9926 82.8147 59.8968 86.4655 59.8248C86.8025 58.2817 87.2297 56.2305 87.2297 56.2305C85.6426 55.9706 84.0319 55.8842 82.4261 55.9728C78.3843 56.0677 75.3824 57.9749 74.4006 60.4516C75.6786 60.3346 76.9836 60.2208 78.2959 60.1153ZM100.031 59.6481L100.829 56.0996H97.2622C98.1311 52.1724 98.4338 50.9909 98.5246 50.5L92.3523 51.6937C92.3523 51.6937 91.5775 55.1113 90.5138 59.7528C93.6376 59.7078 96.9529 59.671 100.031 59.6481ZM64.1749 66.1305C63.2086 70.3589 62.2211 74.6241 62.1818 74.8204H67.8944C67.914 74.7443 69.2321 69.1512 70.3743 64.2397C68.2734 64.751 66.2035 65.3823 64.1749 66.1305ZM118.537 56.2854C116.13 56.0548 113.711 55.9628 111.294 56.0096C107.849 56.1086 105.212 57.223 103.358 59.6219C108.467 59.5875 112.283 59.5786 112.283 59.5786L112.16 60.1071H112.169C110.827 65.6912 110.331 68.2995 110.331 68.2995C110.069 68.8273 109.672 69.2768 109.181 69.6029C108.69 69.929 108.122 70.1203 107.534 70.1576C106.212 70.1576 106.049 69.0024 106.086 67.9485C106.175 65.4195 106.945 62.0233 108.488 60.6553C106.896 60.6896 104.857 60.742 102.55 60.8189C101.159 63.2827 100.392 66.0496 100.316 68.878C100.221 71.6164 101.443 75.0389 104.677 75.0389C105.714 75.0098 106.73 74.7414 107.647 74.2546C108.563 73.7678 109.355 73.0758 109.96 72.2326C109.938 73.3682 110.109 75.0389 110.109 75.0389L115.036 74.4425C114.995 73.1369 115.096 71.8307 115.338 70.5471C116.309 65.9538 118.537 56.2854 118.537 56.2854ZM82.6576 63.6973C82.2486 63.3815 81.7077 63.0321 81.2667 62.6443C81.1334 62.524 80.9943 62.4226 80.8699 62.3097C79.8881 62.434 78.9415 62.5641 78.0472 62.7065C76.6563 62.9249 75.3611 63.1573 74.1502 63.3954C74.4725 64.9785 75.5632 65.9178 77.157 67.0338C77.6994 67.3873 78.2779 67.7366 78.7197 68.0525C78.9971 68.2423 79.2368 68.482 79.4266 68.7594C79.5227 68.9725 79.5376 69.2135 79.4684 69.4368C79.1877 70.5054 78.1446 70.7361 76.8085 70.7459C75.4825 70.7729 74.1597 70.6075 72.8812 70.255L71.8339 74.5684C73.9692 74.9725 76.1471 75.1044 78.3155 74.9612C83.4005 74.6797 85.7978 71.3506 85.9082 68.1924C85.9786 66.1878 84.3218 64.8558 82.6584 63.6924M96.2853 70.5749C95.5555 70.5749 94.8846 70.4931 94.6489 70.1748C94.2865 69.7526 94.4239 68.9795 94.5139 68.4894L96.1503 61.0865C94.1801 61.1855 92.1412 61.3049 90.117 61.4473C89.6032 63.6842 89.0444 66.1248 88.4806 68.5581C88.0953 70.2435 88.0118 72.1041 89.0648 73.4737C89.524 74.0068 90.103 74.4233 90.7545 74.689C91.4059 74.9547 92.1111 75.062 92.8121 75.0021C94.1864 75.0269 95.5579 74.8676 96.8899 74.5283L97.7147 70.498C97.2769 70.5373 96.8065 70.5798 96.2853 70.5798" fill="white"/>
</g>
</g>
</g>
<defs>
<clipPath id="clip0_3_300">
<rect width="180" height="123.72" fill="white" transform="translate(0 0.910156)"/>
</clipPath>
<clipPath id="clip1_3_300">
<rect width="180" height="123.72" fill="white" transform="translate(0 0.910156)"/>
</clipPath>
<clipPath id="clip2_3_300">
<rect width="180" height="122.727" fill="white" transform="translate(0 1.40674)"/>
</clipPath>
</defs>
</svg>
