<svg width="180" height="124" viewBox="0 0 180 124" fill="none" xmlns="http://www.w3.org/2000/svg">
<g clip-path="url(#clip0_3_265)">
<g clip-path="url(#clip1_3_265)">
<g clip-path="url(#clip2_3_265)">
<path d="M22.0917 52.2072C24.1257 52.1115 25.8963 52.3267 28.3615 52.2072C28.3615 52.2072 28.3378 58.0703 28.3615 60.7499C28.3615 60.7499 32.6447 54.9833 34.8701 52.159C36.3298 52.1827 37.4065 52.1827 39.249 52.159L32.166 60.7253C34.6541 64.7451 37.1193 68.7435 39.6557 72.6896C39.9788 73.0579 40.3905 73.3378 40.8518 73.5029C39.1287 73.4072 37.1185 73.6469 35.4437 73.3392C34.7598 73.1404 34.1669 72.7085 33.768 72.1185L28.3844 63.1455V71.5687H22.1662C22.5889 70.9302 22.8138 70.181 22.8126 69.4152V53.4983C22.6931 52.7808 22.3814 52.6368 22.095 52.2064L22.0917 52.2072ZM54.9949 68.647L49.9459 54.1701H44.2031C44.4866 54.3706 44.7054 54.6495 44.8329 54.9726C44.9603 55.2956 44.9908 55.6488 44.9207 55.9889L43.9388 59.0039L40.7087 68.935L39.8709 71.5188C41.067 71.5188 41.3788 71.495 42.7901 71.5188C43.4839 69.4373 43.8906 68.1929 44.4895 66.2783H49.3986C49.3986 66.2783 50.5947 69.8202 51.2411 71.5188H56.7687C55.8924 70.7698 55.2719 69.7658 54.9941 68.647H54.9949ZM45.1604 64.0529C45.711 62.4018 46.1651 60.9438 46.7395 59.0039H46.7869C47.457 60.655 47.9831 62.3543 48.5337 64.0529C47.4325 63.9809 46.3099 64.124 45.1587 64.0529H45.1604ZM74.3294 70.2269V55.6256C74.2936 55.0731 74.055 54.5532 73.6593 54.166H78.9235L78.8997 69.1935C80.8855 69.0495 83.3744 69.6239 84.9297 68.2117H84.9535C84.7447 69.3268 84.4732 70.4293 84.1402 71.5139H73.7297C73.9198 71.3571 74.0722 71.1596 74.1757 70.936C74.2792 70.7124 74.3312 70.4684 74.3277 70.222L74.3294 70.2269ZM123.887 54.1905V56.6074H119.819C119.842 58.0908 119.819 61.0821 119.819 61.0821H123.145C123.145 62.1588 123.168 62.8289 123.145 63.7624C121.661 63.7624 120.872 63.715 119.795 63.7624V69.3138C121.063 69.3375 122.331 69.2664 123.624 69.3138C124.579 69.1756 125.467 68.7402 126.16 68.0693C125.897 69.2655 125.539 70.442 125.275 71.6104H114.697C114.883 71.4346 115.031 71.2233 115.134 70.989C115.237 70.7548 115.291 70.5023 115.295 70.2465V55.6976C115.312 55.418 115.259 55.1385 115.143 54.8839C115.026 54.6293 114.848 54.4075 114.625 54.238H123.886L123.887 54.1905ZM156.382 52.0632V56.083C145.091 48.4019 143.174 70.393 153.511 68.9333L153.558 68.885V63.6438C153.474 62.8616 153.118 62.1336 152.553 61.5861L152.649 61.5378H158.392V71.1817C134.056 77.4514 137.765 46.6068 156.382 52.0624L156.382 52.0632ZM109.051 61.6589V61.6352C111.683 61.2048 113.645 54.2175 107.638 54.2175C104.623 54.2175 102.566 54.1938 99.5261 54.1938C99.8913 54.5926 100.095 55.1127 100.099 55.6534V70.2711C100.117 70.5186 100.069 70.7666 99.96 70.9895C99.8507 71.2124 99.684 71.4022 99.477 71.5392H107.302C114.194 71.5425 114.29 62.3535 109.05 61.6597L109.051 61.6589ZM104.72 56.8971C107.352 55.9398 109.242 60.9651 104.72 60.9168C104.695 59.4817 104.695 58.3092 104.72 56.8971ZM104.72 69.2688C104.744 67.4499 104.744 65.3415 104.72 63.4065C109.098 62.5212 110.414 69.5797 104.72 69.2688ZM85.6481 67.7854C92.133 72.0686 97.1337 67.3305 90.0033 64.3875C81.4124 60.8464 87.3949 50.0783 96.129 54.6961C96.129 56.5624 96.1765 57.5197 96.129 57.5434C90.4835 54.1692 88.3285 59.1463 92.8031 60.5102C101.777 63.2863 98.7619 75.8249 86.3182 71.2283C86.0548 70.0559 85.8395 68.9309 85.6481 67.783V67.7854ZM137.048 62.9753C142.456 59.8883 139.012 54.1455 135.684 54.193C131.951 54.2887 129.941 54.0972 127.189 54.193C127.529 54.6027 127.744 55.1008 127.811 55.6289V70.1295C127.823 70.4017 127.768 70.6726 127.651 70.9188C127.534 71.1649 127.359 71.3787 127.141 71.5417H132.453V64.1478C132.453 64.1478 134.894 68.6707 136.09 70.9674C136.18 71.1129 136.298 71.2386 136.438 71.337C136.578 71.4355 136.736 71.5045 136.903 71.54H141.71C141.809 71.5899 137.046 62.9753 137.046 62.9753H137.048ZM132.454 62.2815C132.454 60.4627 132.501 62.018 132.454 56.825C135.803 55.534 137.214 62.8559 132.452 62.2815H132.454ZM67.8453 62.9753C73.2535 59.8883 69.7361 54.2208 66.4331 54.193C61.1926 54.193 57.9862 54.265 57.9862 54.193C58.3365 54.5895 58.5614 55.0809 58.6326 55.6052V70.1541C58.6357 70.4205 58.5742 70.6838 58.4534 70.9214C58.3326 71.1589 58.156 71.3636 57.9387 71.518H63.2463V64.1478C63.2463 64.1478 65.6869 68.6944 66.8839 71.0156C66.9596 71.1514 67.0661 71.2677 67.1949 71.3549C67.3236 71.4422 67.471 71.498 67.6252 71.518H72.5073C72.6055 71.5425 67.8437 62.9753 67.8437 62.9753H67.8453ZM63.2749 62.2815V56.825C66.6229 55.534 68.0351 62.8559 63.2733 62.2815H63.2749Z" fill="white"/>
</g>
</g>
</g>
<defs>
<clipPath id="clip0_3_265">
<rect width="180" height="123.72" fill="white" transform="translate(0 0.189941)"/>
</clipPath>
<clipPath id="clip1_3_265">
<rect width="180" height="123.72" fill="white" transform="translate(0 0.189941)"/>
</clipPath>
<clipPath id="clip2_3_265">
<rect width="180" height="122.727" fill="white" transform="translate(0 0.686523)"/>
</clipPath>
</defs>
</svg>
