<svg id="Layer_1" data-name="Layer 1" xmlns="http://www.w3.org/2000/svg" viewBox="0 0 686.81 973.03"><defs><style>.cls-1{fill:#fff;}</style></defs><path class="cls-1" d="M672.19,316.33c-3.08-37.51-10-74.25-24.88-108.57A331.14,331.14,0,0,0,343.42,8.16c-182.86,0-331,148.21-331,331s148.16,331,331,331a329.65,329.65,0,0,0,165.15-44.07v40.49c0,73.2-59.4,132.77-132.44,132.77H16V964.87H376.13c164,0,297.49-133.76,297.49-298.25,0-65.89-.2-131.78-.21-197.66C673.4,419.44,676.35,367.19,672.19,316.33ZM343.42,506.59C251,506.59,176,431.63,176,339.18s75-167.42,167.47-167.42A167.45,167.45,0,0,1,510.78,339.18a161.47,161.47,0,0,1-2.21,27A167.36,167.36,0,0,1,343.42,506.59Z"/></svg>