<svg width="180" height="125" viewBox="0 0 180 125" fill="none" xmlns="http://www.w3.org/2000/svg">
<g clip-path="url(#clip0_3_272)">
<g clip-path="url(#clip1_3_272)">
<g clip-path="url(#clip2_3_272)">
<path d="M137.691 71.2566V70.5055C137.907 70.4686 138.126 70.4532 138.346 70.4597C138.982 70.4319 139.605 70.6518 140.083 71.0733C140.436 71.3808 140.683 71.7924 140.788 72.2491C140.853 72.6067 140.883 72.9697 140.879 73.3331V76.1076C140.876 76.3061 140.887 76.5047 140.912 76.7016V77.127H139.93C139.915 76.9539 139.93 76.7793 139.976 76.6116V73.1908C139.976 71.8817 139.415 71.232 138.188 71.232C138.014 71.2214 137.841 71.2369 137.672 71.2779L137.691 71.2566ZM137.691 57.5848C138.16 57.5716 138.615 57.422 139 57.1544C139.189 57.0104 139.425 56.8271 139.751 56.5408L141.06 57.7165C140.681 58.2007 140.219 58.614 139.695 58.9372C139.078 59.2629 138.395 59.4436 137.698 59.4658L137.691 57.5848ZM137.691 56.1423V54.8332L139.147 54.8136C139.007 54.5441 138.817 54.3045 138.585 54.1083C138.324 53.9243 138.01 53.8324 137.691 53.8473V52.0195C138.534 52.0157 139.349 52.3221 139.981 52.8803C140.613 53.4385 141.018 54.2096 141.118 55.0468C141.163 55.406 141.178 55.7683 141.164 56.13L137.691 56.1423ZM137.691 52.0228V53.8506C137.499 53.846 137.308 53.8814 137.13 53.9545C136.953 54.0276 136.792 54.1368 136.659 54.2752C136.471 54.4333 136.312 54.6233 136.19 54.8365H137.691V56.1456H136.046C136.113 56.4972 136.258 56.8293 136.47 57.1176C136.622 57.2739 136.805 57.3965 137.008 57.4774C137.21 57.5583 137.427 57.5957 137.645 57.5872H137.691V59.469C137.197 59.4714 136.708 59.3678 136.258 59.1651C135.807 58.9624 135.405 58.6654 135.079 58.2941C134.761 57.9663 134.512 57.5777 134.347 57.1515C134.182 56.7253 134.105 56.2702 134.12 55.8134C134.117 54.8599 134.45 53.9358 135.06 53.2026C135.519 52.6778 136.123 52.3008 136.797 52.1193C137.092 52.0647 137.391 52.034 137.691 52.0277V52.0228ZM137.691 70.5055V71.2566C137.178 71.3664 136.696 71.5901 136.28 71.9111V75.9521C136.275 76.3443 136.29 76.7365 136.326 77.127H135.386V68.1589C135.386 67.7801 135.386 67.2647 135.34 66.6568H136.339C136.294 67.4529 136.294 67.8775 136.294 68.0215V71.0242C136.739 70.7912 137.213 70.6179 137.704 70.5088H137.691V70.5055ZM129.203 75.1871C129.336 75.4695 129.527 75.7205 129.764 75.9235C130.224 76.349 130.829 76.5831 131.456 76.578C131.971 76.5758 132.475 76.429 132.911 76.1542C133.181 75.9948 133.433 75.8063 133.662 75.5921L134.224 76.1542C133.848 76.5018 133.421 76.7881 132.957 77.0027C132.454 77.2283 131.908 77.34 131.357 77.33C130.562 77.3216 129.796 77.0248 129.203 76.4946V75.1871ZM129.203 71.2304C129.868 70.6568 130.721 70.3478 131.599 70.3623C132.21 70.3578 132.81 70.5201 133.336 70.8319C133.479 70.9236 133.715 71.0218 133.949 71.1592L133.434 71.8645C132.918 71.4062 132.241 71.1709 131.552 71.2099C131.184 71.2021 130.818 71.2739 130.48 71.4203C130.142 71.5667 129.84 71.7844 129.593 72.0584C129.447 72.2318 129.316 72.4174 129.202 72.6131L129.203 71.2304ZM129.203 57.5782C129.689 57.5695 130.162 57.4224 130.568 57.1544C130.818 56.9674 131.053 56.7624 131.273 56.5408L132.638 57.7165C132.233 58.1928 131.757 58.6044 131.227 58.9372C130.602 59.2676 129.91 59.4527 129.203 59.4789V57.5782ZM129.203 56.1431V54.8341L130.705 54.8013C130.565 54.5318 130.375 54.2922 130.143 54.096C129.864 53.9159 129.535 53.8299 129.203 53.8506L129.229 52.0228C130.065 52.0266 130.871 52.3299 131.501 52.8778C131.831 53.1423 132.104 53.4695 132.305 53.8404C132.507 54.2114 132.633 54.6186 132.676 55.0386C132.676 55.2742 132.722 55.6522 132.722 56.1219L129.204 56.1415L129.203 56.1431ZM129.203 53.8522C129.012 53.8518 128.822 53.8891 128.645 53.9621C128.468 54.0351 128.307 54.1424 128.171 54.2777C128.08 54.3693 127.937 54.5583 127.701 54.8389H129.202V56.148H127.557C127.637 56.5067 127.798 56.8425 128.027 57.1299C128.178 57.2866 128.362 57.4081 128.565 57.4859C128.768 57.5637 128.985 57.5958 129.202 57.5799V59.4805C128.709 59.478 128.222 59.3722 127.772 59.1698C127.322 58.9674 126.92 58.673 126.591 58.3056C125.974 57.6232 125.64 56.7315 125.657 55.8118C125.648 54.8494 125.998 53.9183 126.639 53.2001C127.09 52.666 127.698 52.2871 128.376 52.1169C128.656 52.0626 128.94 52.032 129.224 52.0252L129.203 53.8522ZM129.203 72.6164C129.007 73.0245 128.911 73.4731 128.923 73.9255C128.916 74.3638 129.012 74.7976 129.203 75.192V76.5011L128.923 76.2205C128.35 75.5893 128.031 74.7681 128.028 73.9157C128.023 73.4116 128.125 72.9123 128.328 72.4507C128.53 71.9891 128.829 71.576 129.203 71.2386V72.6164ZM120.579 77.3561V76.5748H120.722C121.269 76.5796 121.808 76.4324 122.276 76.1493C122.585 75.9297 122.869 75.6782 123.125 75.399L123.739 75.9137C123.339 76.3024 122.901 76.6482 122.429 76.9454C121.884 77.2221 121.279 77.3625 120.667 77.3545L120.579 77.3561ZM120.579 73.131L123.02 73.1384C122.943 72.8297 122.833 72.53 122.693 72.2441C122.481 71.8818 122.171 71.5869 121.799 71.394C121.417 71.2128 121 71.1171 120.578 71.1134L120.584 70.3492C121.32 70.3526 122.036 70.588 122.63 71.0218C123.164 71.4147 123.547 71.9795 123.714 72.6213C123.824 73.0487 123.872 73.4895 123.857 73.9304H120.58L120.579 73.131ZM120.579 54.0993V52.3181H121.003C121.039 51.9273 121.054 51.5348 121.049 51.1424C121.049 50.8618 121.003 50.3921 121.003 49.7319H122.962C122.916 50.5811 122.916 51.423 122.87 52.3435H124.425V54.1329H122.87V56.5743C122.824 56.8854 122.891 57.2029 123.059 57.4686C123.158 57.5276 123.271 57.5593 123.387 57.5602C123.627 57.5406 123.863 57.4923 124.092 57.4162L124.607 58.9176C124.079 59.1898 123.506 59.3644 122.916 59.4331C122.463 59.429 122.026 59.2598 121.689 58.9571C121.351 58.6543 121.135 58.2389 121.082 57.7885C121.014 57.4658 120.983 57.1364 120.99 56.8067V54.132L120.579 54.0993ZM125.984 67.4831C126.094 67.4792 126.203 67.5028 126.301 67.5518C126.399 67.6008 126.483 67.6737 126.546 67.7638C126.642 67.9014 126.692 68.0657 126.689 68.2334C126.703 68.4059 126.648 68.577 126.536 68.7092C126.424 68.8414 126.265 68.9239 126.092 68.9387C126.056 68.9419 126.02 68.9419 125.984 68.9387C125.879 68.9394 125.775 68.9189 125.679 68.8784C125.582 68.8379 125.495 68.7783 125.422 68.703C125.326 68.5655 125.276 68.4011 125.279 68.2334C125.283 68.0807 125.333 67.9329 125.422 67.8088C125.484 67.7141 125.566 67.6351 125.664 67.5782C125.761 67.5214 125.871 67.4882 125.984 67.4815L125.984 67.4831ZM125.469 77.1197C125.515 75.9898 125.515 75.4293 125.515 75.3827V70.5063H126.497C126.451 71.2116 126.405 71.6812 126.405 71.9627V75.4416C126.405 76.0552 126.451 76.6165 126.451 77.1328H125.469V77.1197ZM120.579 52.3099V54.0993H120.2V52.3181H120.579V52.3099ZM120.578 71.1134C120.255 71.1162 119.938 71.189 119.646 71.3267C119.354 71.4644 119.095 71.6638 118.888 71.9111C118.581 72.2724 118.343 72.6855 118.182 73.131H120.579V73.9288H118.136C118.164 74.2782 118.227 74.6239 118.325 74.9605C118.533 75.4708 118.896 75.9025 119.364 76.1943C119.728 76.4315 120.15 76.5626 120.584 76.5731V77.3561C120.124 77.3558 119.67 77.2592 119.249 77.0727C118.829 76.8861 118.452 76.6137 118.143 76.2729C117.831 75.9262 117.59 75.5214 117.435 75.0816C117.279 74.6419 117.212 74.1758 117.236 73.71C117.261 73.2442 117.377 72.7878 117.578 72.3668C117.779 71.9459 118.06 71.5686 118.407 71.2566C119.009 70.7155 119.777 70.3962 120.584 70.3517L120.578 71.1134ZM103.898 76.5396C104.486 76.5558 105.068 76.4209 105.589 76.1477C105.887 75.9153 106.17 75.6645 106.437 75.3966L106.999 75.9112C106.619 76.3214 106.177 76.6695 105.689 76.943C105.133 77.2217 104.517 77.362 103.894 77.3521L103.898 76.5396ZM103.898 73.1122L106.306 73.1384C106.163 72.7596 106.072 72.4323 105.979 72.2441C105.768 71.8818 105.457 71.5869 105.085 71.394C104.714 71.2068 104.306 71.1042 103.89 71.0938V70.3697C104.626 70.3656 105.344 70.5947 105.941 71.0242C106.475 71.417 106.858 71.9818 107.025 72.6238C107.071 72.9044 107.116 73.374 107.168 73.9329L103.895 73.9132L103.898 73.1122ZM103.891 56.3395V55.1572C103.93 55.342 103.945 55.5308 103.937 55.7193C103.947 55.925 103.932 56.1311 103.891 56.333V56.3395ZM105.302 52.4212L106.96 51.8927C107.133 52.117 107.29 52.3529 107.431 52.5988C107.883 52.3234 108.402 52.1763 108.932 52.1733C109.286 52.1597 109.638 52.2245 109.964 52.3631C110.182 52.4833 110.388 52.6256 110.577 52.7878C110.768 52.5966 110.989 52.4379 111.232 52.3181C111.609 52.1836 112.007 52.1196 112.407 52.1291C112.837 52.0908 113.27 52.1769 113.653 52.3772C114.036 52.5775 114.353 52.8836 114.568 53.259C114.782 53.7638 114.878 54.311 114.848 54.8586V58.3383C114.848 58.4823 114.894 58.7629 114.94 59.2334H112.916C112.962 58.4365 113.008 57.732 113.008 57.1634V54.9543C113.055 54.6432 112.987 54.3257 112.819 54.06C112.632 53.9332 112.412 53.863 112.186 53.8579C111.856 53.8884 111.543 54.0205 111.292 54.2359V58.155C111.298 58.5004 111.329 58.8448 111.383 59.186H109.313C109.3 59.0128 109.316 58.8386 109.359 58.6705C109.359 57.9644 109.405 57.4948 109.405 57.3614V55.1629C109.428 54.8962 109.413 54.6275 109.359 54.3652C109.306 54.2131 109.203 54.0836 109.066 53.9983C108.93 53.913 108.768 53.877 108.608 53.8964C108.266 53.9333 107.94 54.0641 107.668 54.2744V57.9898C107.668 58.3686 107.714 58.7859 107.714 59.2571H105.657C105.753 58.2208 105.8 57.609 105.8 57.422V54.2949C105.73 53.6592 105.556 53.0394 105.284 52.4605L105.302 52.4212ZM118.059 49.1174C118.223 49.1182 118.385 49.1569 118.533 49.2306C118.68 49.3042 118.808 49.4108 118.907 49.542C119.015 49.6342 119.101 49.7498 119.157 49.8799C119.214 50.01 119.24 50.1513 119.234 50.2931C119.234 50.4643 119.196 50.6334 119.123 50.7881C119.049 50.9427 118.942 51.0791 118.81 51.1874C118.605 51.3748 118.336 51.4754 118.059 51.468C117.887 51.4681 117.718 51.4301 117.564 51.3566C117.409 51.2832 117.273 51.1762 117.164 51.0434C116.977 50.8389 116.876 50.5696 116.884 50.2923C116.878 50.1438 116.904 49.9956 116.96 49.8581C117.017 49.7206 117.102 49.5969 117.211 49.4954C117.319 49.378 117.45 49.2838 117.596 49.2187C117.742 49.1536 117.9 49.1188 118.06 49.1166L118.059 49.1174ZM117.027 59.2293C117.1 58.5793 117.13 57.9253 117.119 57.2714V53.9218C117.131 53.387 117.1 52.8521 117.027 52.3222H119.097C119.097 52.6029 119.051 52.7927 119.051 52.9359C119.051 53.2631 119.005 53.4521 119.005 53.5495V58.2475C119.005 58.3907 119.051 58.7171 119.097 59.2293H117.027ZM108.781 70.697L109.486 70.4621C109.577 70.6061 109.629 70.7436 109.675 70.7894C109.721 70.9784 109.766 71.2599 109.818 71.5855C109.884 71.3228 110.014 71.0805 110.197 70.8802C110.548 70.5748 110.998 70.4075 111.463 70.4098C111.725 70.4112 111.983 70.4764 112.214 70.5996L111.98 71.5397C111.788 71.4401 111.58 71.3758 111.366 71.3499C111.177 71.3489 110.991 71.3907 110.821 71.472C110.651 71.5533 110.502 71.6721 110.384 71.8195C110.204 72.0418 110.07 72.2976 109.989 72.5722C109.908 72.8467 109.883 73.1346 109.914 73.419V75.7697C109.918 76.2257 109.948 76.6811 110.005 77.1336H109.065C109.065 76.8063 109.111 76.3367 109.111 75.7697V75.5406L109.065 72.276C109.081 71.7439 108.986 71.2144 108.785 70.7215L108.781 70.697ZM113.435 70.697L114.14 70.4621C114.232 70.6061 114.284 70.7436 114.329 70.7894C114.391 71.0502 114.422 71.3174 114.421 71.5855C114.487 71.3228 114.617 71.0805 114.8 70.8802C115.151 70.575 115.601 70.4081 116.066 70.4106C116.328 70.4122 116.586 70.477 116.818 70.5996L116.583 71.5397C116.391 71.4401 116.183 71.3758 115.969 71.3499C115.781 71.3489 115.594 71.3907 115.424 71.472C115.254 71.5533 115.105 71.6721 114.987 71.8195C114.807 72.0418 114.673 72.2976 114.592 72.5722C114.511 72.8467 114.486 73.1346 114.517 73.419V75.7697C114.521 76.2257 114.551 76.6811 114.608 77.1336H113.714C113.714 76.8063 113.76 76.3367 113.76 75.7697V75.5406L113.714 72.276C113.735 71.736 113.642 71.1975 113.44 70.6961L113.435 70.697ZM103.89 55.1589V56.3346C103.779 57.1751 103.36 57.9448 102.715 58.4954C102.063 59.1109 101.203 59.4582 100.306 59.4682V57.5864C100.788 57.5795 101.248 57.382 101.585 57.0371C101.923 56.6922 102.11 56.2279 102.106 55.7455C102.115 55.5383 102.083 55.3313 102.01 55.1372C101.937 54.9431 101.825 54.7659 101.681 54.6164C101.516 54.4002 101.303 54.2264 101.057 54.1094C100.812 53.9924 100.542 53.9357 100.271 53.9439V52.0964C100.787 52.0801 101.3 52.1801 101.773 52.3892C102.245 52.5982 102.664 52.9109 102.999 53.3041C103.491 53.8076 103.803 54.4593 103.887 55.158L103.89 55.1589ZM103.89 71.0954C103.562 71.1026 103.238 71.1769 102.939 71.3138C102.641 71.4508 102.373 71.6473 102.153 71.8915C101.867 72.258 101.645 72.6709 101.499 73.1122H103.894V73.9091H101.453C101.457 74.2612 101.521 74.6101 101.642 74.9409C101.85 75.4457 102.21 75.8726 102.674 76.1616C103.034 76.4054 103.459 76.5372 103.894 76.5404V77.3586C103.434 77.3583 102.979 77.2616 102.559 77.0749C102.138 76.8882 101.762 76.6156 101.453 76.2745C100.833 75.5662 100.516 74.6434 100.568 73.7038C100.621 72.7642 101.039 71.8826 101.734 71.2476C102.327 70.7134 103.09 70.4039 103.888 70.373L103.89 71.0954ZM100.273 53.9447C100.014 53.9354 99.7558 53.9859 99.5191 54.0923C99.2824 54.1987 99.0735 54.3581 98.9084 54.5583C98.7532 54.726 98.6343 54.9238 98.559 55.1395C98.4837 55.3551 98.4536 55.584 98.4706 55.8118C98.4634 56.0628 98.5151 56.3119 98.6217 56.5393C98.7283 56.7667 98.8867 56.9658 99.0842 57.1209C99.2455 57.2775 99.4368 57.3998 99.6466 57.4806C99.8564 57.5613 100.08 57.5987 100.305 57.5905V59.4723C99.7876 59.4904 99.2731 59.3898 98.8006 59.1782C98.3282 58.9666 97.9105 58.6497 97.5796 58.2516C97.2582 57.9324 97.0028 57.553 96.828 57.1351C96.6532 56.7171 96.5625 56.2689 96.561 55.8159C96.5387 54.9398 96.8409 54.0863 97.4094 53.4194C97.838 52.9239 98.3898 52.5502 99.009 52.3361C99.4093 52.1675 99.8413 52.0874 100.276 52.1013L100.273 53.9447ZM84.6041 76.6255C85.2531 76.6357 85.8968 76.5063 86.4915 76.2462C87.0862 75.986 87.618 75.6011 88.0511 75.1176C88.8059 74.2427 89.2227 73.1264 89.226 71.9708C89.261 70.7836 88.8229 69.631 88.0082 68.7667C87.1934 67.9024 86.0687 67.3971 84.8814 67.362H84.6524L84.6131 66.5529C85.5795 66.5503 86.5305 66.7953 87.3753 67.2647C88.204 67.7142 88.8844 68.3947 89.334 69.2234C89.8383 70.0435 90.0988 70.9902 90.0851 71.9529C90.1104 73.3154 89.6072 74.6349 88.6811 75.6347C88.0279 76.3147 87.2221 76.8294 86.3304 77.136C85.7913 77.326 85.2239 77.4231 84.6524 77.4232L84.6041 76.6255ZM87.372 48.7476H89.442V49.4021C89.3962 49.9184 89.3961 50.2964 89.3961 50.4339V52.9293L93.3136 48.7443H96.0881L91.0088 53.9152L94.2733 56.9245C94.7888 57.44 95.3574 57.9104 95.9645 58.4259L94.509 59.8356C94.1302 59.4568 93.7579 59.0395 93.3791 58.7065L89.4616 55.0369V58.0462C89.4616 58.1894 89.4616 58.6075 89.5074 59.2211H87.3728C87.4015 59.0662 87.4168 58.9091 87.4186 58.7515V49.4529C87.3727 49.2208 87.3574 48.9837 87.3728 48.7476H87.372ZM85.8706 64.0713C85.9762 64.0621 86.0824 64.0786 86.1802 64.1195C86.278 64.1604 86.3643 64.2245 86.4319 64.3061C86.4956 64.366 86.5456 64.439 86.5782 64.5201C86.6108 64.6012 86.6254 64.6885 86.6209 64.7758C86.6127 64.9853 86.5293 65.1848 86.386 65.3379C86.2482 65.4339 86.0836 65.4841 85.9156 65.4811C85.8111 65.4816 85.7075 65.461 85.6111 65.4207C85.5147 65.3804 85.4273 65.321 85.3543 65.2462C85.2603 65.1466 85.1976 65.0215 85.1742 64.8866C85.1508 64.7516 85.1677 64.6127 85.2228 64.4873C85.2779 64.3618 85.3687 64.2554 85.4839 64.1813C85.5991 64.1071 85.7337 64.0694 85.8706 64.0713ZM90.9957 76.4365L91.5112 75.7312C91.7373 75.9825 92.0074 76.1904 92.3081 76.3449C92.6163 76.4831 92.9524 76.5478 93.2899 76.5339C93.5227 76.5524 93.7567 76.5186 93.9747 76.4349C94.1927 76.3513 94.3893 76.2199 94.5499 76.0503C94.7539 75.8139 94.8696 75.514 94.8772 75.2019C94.8787 75.0619 94.8448 74.9238 94.7785 74.8005C94.7123 74.6771 94.6159 74.5726 94.4984 74.4966C94.3686 74.3729 94.2047 74.2911 94.0279 74.2618L92.8072 73.9345C92.2963 73.8169 91.8371 73.5374 91.4981 73.1376C91.3074 72.8618 91.2091 72.5327 91.2174 72.1975C91.2146 71.9472 91.2682 71.6994 91.3745 71.4728C91.4807 71.2461 91.6368 71.0463 91.8311 70.8884C92.2728 70.5034 92.8452 70.3022 93.4306 70.3263C93.8853 70.3408 94.3317 70.4524 94.7397 70.6536C94.9907 70.8198 95.2266 71.0076 95.445 71.2149L94.9295 71.8285C94.7384 71.637 94.5174 71.4781 94.275 71.358C94.0113 71.2281 93.7204 71.1631 93.4265 71.1682C93.2378 71.1576 93.0489 71.1858 92.8715 71.2509C92.694 71.3161 92.5318 71.4169 92.3948 71.5471C92.3077 71.624 92.2378 71.7184 92.1894 71.8241C92.1411 71.9298 92.1154 72.0445 92.1142 72.1607C92.1102 72.2703 92.1338 72.3791 92.1828 72.4771C92.2319 72.5752 92.3048 72.6594 92.3948 72.7219C92.6111 72.8677 92.8491 72.9782 93.1001 73.0492L94.3928 73.4346C94.8349 73.541 95.2215 73.8086 95.4769 74.1849C95.7041 74.4995 95.8193 74.8812 95.8042 75.2689C95.7977 75.5443 95.7312 75.8149 95.6094 76.0619C95.4876 76.3089 95.3134 76.5264 95.0989 76.6991C94.5906 77.1026 93.9592 77.3192 93.3103 77.3128C92.8409 77.3152 92.3761 77.2196 91.9456 77.0321C91.6171 76.8518 91.3028 76.6467 91.0055 76.4185L90.9957 76.4365ZM96.5454 71.3114V70.5538H97.4397V67.7859H98.2882V70.5603H100.077V71.3114H98.2882V74.4123C98.2417 74.9644 98.3036 75.5203 98.4706 76.0487C98.5534 76.1874 98.6697 76.3031 98.8087 76.3853C98.9478 76.4675 99.1053 76.5135 99.2667 76.5191C99.4697 76.4858 99.662 76.4051 99.828 76.2835L100.109 77.0346C99.7954 77.1631 99.4642 77.2423 99.1268 77.2694C98.8431 77.2678 98.5655 77.1877 98.3246 77.0379C98.0837 76.8882 97.889 76.6746 97.7621 76.421C97.5271 75.8545 97.4155 75.2445 97.4348 74.6316V71.3081H96.5471L96.5454 71.3114ZM84.6524 67.362C83.7251 67.3496 82.8174 67.6285 82.0579 68.1607C81.2984 68.6929 80.7256 69.4505 80.4207 70.3263C80.1988 70.9122 80.0878 71.5342 80.0934 72.1607C80.0747 73.1371 80.4084 74.0875 81.0335 74.8378C81.4339 75.4086 81.9699 75.8709 82.5933 76.1831C83.2167 76.4953 83.908 76.6476 84.6049 76.6263L84.6507 77.4232C83.6732 77.4427 82.7105 77.182 81.8763 76.6721C81.0575 76.2093 80.3804 75.5322 79.9175 74.7134C79.4587 73.9193 79.2155 73.0189 79.2123 72.1018C79.2114 70.9613 79.5535 69.847 80.194 68.9035C80.8138 67.9189 81.7623 67.1855 82.8712 66.8335C83.4327 66.6529 84.0183 66.5583 84.6082 66.5529L84.6524 67.362ZM70.6614 57.6011C71.1325 57.5889 71.589 57.4343 71.9705 57.1577C72.2367 56.9733 72.4878 56.7681 72.7216 56.544L74.0863 57.7198C73.681 58.196 73.2053 58.6076 72.6758 58.9405C72.0548 59.2701 71.3673 59.4553 70.6647 59.4821L70.6614 57.6011ZM70.6614 56.1456V54.8365L72.1628 54.8169C72.024 54.5471 71.8333 54.3074 71.6015 54.1116C71.3206 53.9341 70.9936 53.8433 70.6614 53.8506V52.0809H70.7531C71.5629 52.0628 72.3504 52.3469 72.9622 52.8778C73.2847 53.1447 73.5506 53.4733 73.7445 53.8444C73.9384 54.2154 74.0563 54.6214 74.0912 55.0386C74.136 55.3978 74.1513 55.7601 74.1371 56.1219L70.6614 56.1456ZM75.5517 52.5456L77.1971 51.932C77.3528 52.1181 77.4825 52.3245 77.5825 52.5456C78.1286 52.2934 78.7185 52.1495 79.3194 52.1218C79.7051 52.1071 80.0894 52.1752 80.4464 52.3215C80.8035 52.4679 81.1251 52.6891 81.3894 52.9702C81.8916 53.584 82.1414 54.3659 82.0881 55.1572V59.1982H80.1294C80.1148 59.0096 80.1303 58.8199 80.1753 58.6361C80.1753 57.9309 80.2211 57.5529 80.2211 57.5062V55.4608C80.257 55.0785 80.2081 54.6929 80.0779 54.3317C79.9749 54.169 79.8282 54.0385 79.6546 53.9553C79.4809 53.8721 79.2874 53.8395 79.0961 53.8612C78.6655 53.894 78.2554 54.0582 77.9212 54.3317V58.3293C77.9212 58.754 77.967 59.0346 77.967 59.2236H75.9428C75.9886 58.3751 76.0344 57.8597 76.0344 57.7222V54.7579C76.0524 54.3169 76.0041 53.8756 75.8913 53.4488C75.8228 53.1372 75.7127 52.8361 75.564 52.5538L75.5517 52.5456ZM83.3866 64.0631C83.4852 64.0568 83.5839 64.0749 83.6738 64.1159C83.7637 64.1568 83.8422 64.2194 83.9021 64.2979C84.0122 64.4311 84.0782 64.5952 84.091 64.7676C84.0917 64.8723 84.0712 64.976 84.0309 65.0725C83.9905 65.1691 83.9311 65.2566 83.8562 65.3297C83.7184 65.4257 83.5538 65.4758 83.3858 65.4729C83.2802 65.4821 83.174 65.4655 83.0762 65.4246C82.9784 65.3837 82.8921 65.3197 82.8245 65.2381C82.7144 65.1046 82.6483 64.9402 82.6355 64.7676C82.6436 64.5715 82.7279 64.3863 82.8703 64.2513C82.9412 64.1863 83.0247 64.1365 83.1157 64.1051C83.2066 64.0737 83.303 64.0614 83.3989 64.0689L83.3866 64.0631ZM70.6614 52.0825V53.8522C70.4694 53.8475 70.2785 53.8828 70.1009 53.9559C69.9232 54.0291 69.7628 54.1383 69.6297 54.2769C69.4542 54.4472 69.2968 54.6353 69.1601 54.8381H70.6614V56.1472H69.0161C69.0821 56.5022 69.2273 56.8378 69.4407 57.129C69.5926 57.2855 69.7757 57.4082 69.9781 57.4892C70.1805 57.5703 70.3977 57.6079 70.6156 57.5995H70.6614V59.4813C70.1674 59.4837 69.6786 59.3801 69.228 59.1774C68.7775 58.9747 68.3757 58.6777 68.0498 58.3064C67.4234 57.6281 67.08 56.7359 67.0901 55.8126C67.0876 54.8588 67.4203 53.9344 68.0301 53.201C68.4923 52.7011 69.0889 52.3451 69.7484 52.1758C70.0439 52.1244 70.3428 52.0938 70.6426 52.0841H70.6623L70.6614 52.0825ZM47.6345 59.3365V57.782C47.798 57.7859 47.9607 57.7573 48.1131 57.6979C48.2655 57.6385 48.4045 57.5494 48.5223 57.4359C48.6834 57.2549 48.7661 57.0174 48.7523 56.7755C48.7385 56.5336 48.6293 56.3071 48.4486 56.1456L48.4314 56.13C48.2268 55.9338 47.9571 55.8199 47.6738 55.8101V54.501C48.0319 54.5588 48.3796 54.6691 48.7055 54.8283C48.7055 54.5601 48.6236 54.2984 48.4707 54.078C48.3629 53.9701 48.233 53.8868 48.09 53.8338C47.9469 53.7808 47.794 53.7595 47.6419 53.7712V52.035C48.3855 52.0431 49.1067 52.2904 49.6988 52.7403C50.0095 52.9581 50.2396 53.2725 50.3533 53.6346C50.5057 54.0723 50.57 54.5358 50.5424 54.9985V56.553C50.5408 56.9491 50.5889 57.3438 50.6855 57.7279C50.7772 58.1068 50.9203 58.5257 51.0644 58.9487L49.3274 59.2759L49.0925 58.8063C48.83 58.997 48.5451 59.1548 48.2441 59.2759C48.0429 59.3209 47.8373 59.3423 47.6313 59.3398L47.6345 59.3365ZM52.7007 52.3181H54.6594C54.6594 53.2582 54.6136 53.8195 54.6136 54.0093V56.1701C54.585 56.4872 54.607 56.8067 54.6791 57.1168C54.7822 57.2792 54.929 57.4094 55.1026 57.4925C55.2762 57.5755 55.4697 57.6081 55.6609 57.5864C56.0847 57.5588 56.492 57.4119 56.8358 57.1626V52.3181H58.86C58.8142 53.0684 58.7684 53.5847 58.7684 53.8727V57.2084C58.838 57.7928 58.9966 58.3632 59.2388 58.8996L57.5476 59.5132L57.2203 58.8587C56.9058 59.0157 56.577 59.1425 56.2385 59.2375C55.9965 59.3168 55.7414 59.3479 55.4874 59.3291C54.7936 59.3402 54.1213 59.0882 53.6056 58.6239C53.1438 58.2472 52.8446 57.7072 52.7702 57.116C52.7243 56.7565 52.709 56.3939 52.7244 56.0319V52.3173H52.6983L52.7007 52.3181ZM61.3513 56.6921C61.5628 56.9876 61.8432 57.2271 62.1681 57.3898C62.493 57.5524 62.8527 57.6334 63.216 57.6257C63.6406 57.6257 63.8296 57.4825 63.8296 57.156C63.8148 57.0431 63.784 56.9329 63.738 56.8288C63.3798 56.5988 62.9811 56.4394 62.5631 56.3591C61.9641 56.2711 61.4243 55.9496 61.0617 55.4649C60.8277 55.1537 60.7117 54.7695 60.7344 54.3808C60.726 54.0718 60.7846 53.7647 60.9064 53.4807C61.0282 53.1966 61.2101 52.9423 61.4397 52.7354C61.9175 52.3139 62.5402 52.094 63.1767 52.1218C63.7846 52.1395 64.3797 52.3004 64.9137 52.5914C65.2387 52.7902 65.539 53.0269 65.808 53.2967L64.7239 54.5632C64.518 54.3421 64.2803 54.1529 64.0186 54.002C63.7723 53.871 63.4944 53.8112 63.216 53.8293C63.1126 53.8176 63.0078 53.8302 62.9102 53.8663C62.8126 53.9024 62.7248 53.9609 62.6539 54.0371C62.6075 54.0778 62.5706 54.1282 62.5458 54.1848C62.5211 54.2414 62.5091 54.3027 62.5107 54.3644C62.5107 54.5992 62.7913 54.7432 63.3591 54.8807C65.0045 55.3053 65.8006 56.0098 65.8006 57.0415C65.8083 57.3659 65.7402 57.6877 65.6019 57.9812C65.4636 58.2748 65.2588 58.5321 65.0037 58.7327C64.7664 58.9601 64.4858 59.1375 64.1785 59.2542C63.8712 59.3708 63.5436 59.4245 63.2152 59.4118C62.5908 59.3951 61.9786 59.2344 61.4266 58.9421C60.9691 58.7156 60.5434 58.4301 60.1601 58.0929L61.3513 56.6921ZM47.6411 52.0375V53.7737H47.5494C47.0795 53.7663 46.6136 53.8621 46.1847 54.0543C45.9883 54.128 45.8002 54.222 45.6234 54.3349L45.0098 52.7804C45.2353 52.6675 45.4538 52.5413 45.6643 52.4024C46.2592 52.1449 46.9031 52.0201 47.5511 52.0367H47.6411V52.0375ZM47.6738 55.811C47.5125 55.804 47.3515 55.8294 47.2002 55.8856C47.0488 55.9418 46.9103 56.0277 46.7926 56.1382C46.6136 56.3293 46.5133 56.5809 46.512 56.8427C46.519 56.9503 46.5474 57.0555 46.5956 57.152C46.6438 57.2486 46.7108 57.3345 46.7926 57.4048C46.9979 57.6312 47.2843 57.7674 47.5895 57.7836H47.6353V59.3381H47.3081C46.9422 59.3662 46.5747 59.3088 46.2348 59.1705C45.8949 59.0322 45.5918 58.8168 45.3494 58.5412C44.9436 58.0904 44.7242 57.5023 44.7357 56.8959C44.734 56.5509 44.8099 56.2099 44.9579 55.8983C45.1059 55.5867 45.3222 55.3124 45.5907 55.0958C45.8295 54.8857 46.108 54.7255 46.4096 54.6246C46.7113 54.5237 47.0301 54.4842 47.3473 54.5084H47.6746L47.6738 55.811ZM18.7511 57.7828C18.9106 57.7864 19.0692 57.7576 19.2173 57.6981C19.3654 57.6386 19.4999 57.5497 19.6126 57.4367C19.7737 57.2557 19.8565 57.0182 19.8427 56.7763C19.8288 56.5344 19.7196 56.3079 19.539 56.1464L19.5218 56.1309C19.3172 55.9346 19.0475 55.8207 18.7642 55.811V54.5019C19.1223 54.5595 19.47 54.6698 19.7959 54.8291C19.7963 54.5609 19.7144 54.299 19.5611 54.0789C19.4578 53.973 19.332 53.8917 19.1931 53.841C19.0542 53.7903 18.9056 53.7715 18.7584 53.786V52.0359C19.4918 52.045 20.2023 52.2926 20.7826 52.7411C21.0936 52.9587 21.3237 53.2732 21.4372 53.6354C21.59 54.0733 21.6542 54.5372 21.6262 55.0001V56.5547C21.6247 56.9508 21.6728 57.3455 21.7693 57.7296C21.861 58.1076 22.0042 58.5257 22.1482 58.9503L20.4112 59.2776L20.1763 58.808C19.9138 58.9987 19.6289 59.1564 19.3279 59.2776C19.14 59.3201 18.9477 59.3398 18.7552 59.3365L18.7511 57.7828ZM23.7911 52.3181H25.7498C25.7498 53.2582 25.704 53.8195 25.704 54.0093V56.1701C25.6754 56.4872 25.6974 56.8067 25.7694 57.1168C25.8726 57.2792 26.0193 57.4094 26.1929 57.4925C26.3665 57.5755 26.56 57.6081 26.7513 57.5864C27.1751 57.5589 27.5824 57.4119 27.9262 57.1626V52.3181H29.916C29.916 53.0684 29.8505 53.5847 29.8505 53.8522V57.1888C29.9202 57.7732 30.0788 58.3435 30.321 58.8799L28.6102 59.505L28.2829 58.8505C27.9683 59.0075 27.6396 59.1344 27.3011 59.2293C27.0591 59.3086 26.8039 59.3398 26.55 59.3209C25.8657 59.3251 25.2045 59.0736 24.696 58.6157C24.2313 58.2424 23.9275 57.705 23.8475 57.1143C23.8016 56.7549 23.7863 56.3922 23.8017 56.0302V52.3157H23.7886L23.7911 52.3181ZM31.0729 54.1067V52.3181H31.8763V51.1432C31.8763 50.8626 31.8764 50.3921 31.8305 49.7327H33.7892C33.7892 50.5819 33.7435 51.4239 33.7435 52.3443H35.298V54.1337H33.7614V56.5743C33.7149 56.8854 33.782 57.2029 33.9504 57.4686C34.0328 57.5265 34.1304 57.5586 34.231 57.561C34.4722 57.5497 34.7101 57.5012 34.9363 57.417L35.4518 58.9176C34.9287 59.2022 34.3534 59.378 33.7606 59.4347C33.3069 59.4188 32.8729 59.2452 32.5334 58.9438C32.2109 58.6257 31.9963 58.2145 31.9197 57.768C31.8754 57.4428 31.8622 57.114 31.8804 56.7862V54.1091H31.077L31.0729 54.1067ZM36.9524 59.2293C36.9859 59.1059 37.0013 58.9783 36.9982 58.8505C36.9982 58.2892 37.044 57.9562 37.044 57.8687V51.5687C37.044 50.7726 36.9982 49.8317 36.9982 48.7476H39.0223C39.0223 49.0282 38.9765 49.2639 38.9765 49.3612C38.9772 49.6123 38.9619 49.8632 38.9307 50.1123V52.5472C39.403 52.328 39.9123 52.1995 40.4321 52.1684C40.7954 52.1622 41.1563 52.2296 41.4929 52.3666C41.8295 52.5036 42.135 52.7072 42.3908 52.9653C42.6312 53.2276 42.8137 53.5376 42.9265 53.875C43.0392 54.2125 43.0797 54.5699 43.0453 54.924V57.6527C43.0453 58.5019 43.0912 59.0174 43.0912 59.2531H41.0645C41.1104 58.6386 41.1562 58.2213 41.1562 57.9865V55.2309C41.1764 55.0457 41.1577 54.8584 41.1013 54.6809C41.045 54.5033 40.9522 54.3396 40.8289 54.2C40.5877 54.0098 40.2874 53.9104 39.9804 53.9193C39.5913 53.9446 39.2165 54.0756 38.8963 54.2981V58.0618C38.8963 58.2516 38.9421 58.6239 38.9421 59.2367H36.9524V59.2293ZM4.09253 59.2293C4.29299 58.3711 4.41971 57.4974 4.47133 56.6177L5.03261 50.8331C5.03261 50.4085 5.12426 49.704 5.17581 48.7631H6.25988L9.31498 53.934L12.2923 48.7435H13.4018C13.4476 49.1681 13.4934 50.01 13.5908 51.3551L14.1521 56.715C14.2437 57.5635 14.3869 58.452 14.5309 59.2514H12.4151C12.4151 58.5003 12.3692 57.5602 12.2719 56.477L11.9912 52.9056L9.31416 57.5602L6.63706 52.8598L6.30979 57.5602V59.2514H4.10069L4.09253 59.2293ZM18.756 53.7843H18.6742C18.2042 53.7765 17.7382 53.8724 17.3094 54.065C17.113 54.1386 16.9249 54.2327 16.7482 54.3456L16.1345 52.791C16.3601 52.6781 16.5787 52.5515 16.7891 52.4122C17.3816 52.1515 18.0236 52.0225 18.6709 52.0342H18.7625L18.756 53.7843ZM18.7625 55.8085C18.6052 55.8016 18.4481 55.8271 18.3011 55.8834C18.154 55.9397 18.02 56.0256 17.9075 56.1358C17.7281 56.3269 17.6278 56.5789 17.6269 56.8411C17.6339 56.9487 17.6623 57.0539 17.7105 57.1504C17.7587 57.2469 17.8257 57.3328 17.9075 57.4031C18.1128 57.6296 18.3992 57.7657 18.7044 57.782H18.7503V59.3365H18.423C18.0571 59.3645 17.6896 59.3072 17.3497 59.1689C17.0098 59.0306 16.7067 58.8151 16.4643 58.5396C16.0585 58.0888 15.8391 57.5007 15.8506 56.8942C15.8364 56.548 15.9007 56.2031 16.0387 55.8853C16.1767 55.5675 16.3849 55.285 16.6475 55.059C16.8933 54.8465 17.1793 54.6855 17.4885 54.5857C17.7977 54.4859 18.1239 54.4494 18.4475 54.4781L18.7658 54.5043L18.7625 55.8085ZM49.6489 69.2381H70.7105V64.7275H49.6481L49.6489 69.2381ZM49.6489 73.2366V77.4666H70.7105V73.2366H49.6481H49.6489ZM168.479 48.0415H143.001L159.454 77.1401L175.907 48.0415H168.479Z" fill="white"/>
</g>
</g>
</g>
<defs>
<clipPath id="clip0_3_272">
<rect width="180" height="123.72" fill="white" transform="translate(0 0.910156)"/>
</clipPath>
<clipPath id="clip1_3_272">
<rect width="180" height="123.72" fill="white" transform="translate(0 0.910156)"/>
</clipPath>
<clipPath id="clip2_3_272">
<rect width="180" height="122.727" fill="white" transform="translate(0 1.40674)"/>
</clipPath>
</defs>
</svg>
