<svg width="180" height="125" viewBox="0 0 180 125" fill="none" xmlns="http://www.w3.org/2000/svg">
<g clip-path="url(#clip0_3_279)">
<g clip-path="url(#clip1_3_279)">
<g clip-path="url(#clip2_3_279)">
<path d="M70.8988 43.1348C68.7183 43.137 66.6176 43.9556 65.0106 45.4294C63.4036 46.9032 62.4068 48.9253 62.2165 51.0975C62.0261 53.2697 62.6561 55.4344 63.9823 57.1652C65.3085 58.896 67.2348 60.0675 69.3817 60.4489C71.5285 60.8302 73.7404 60.3938 75.5815 59.2256C77.4227 58.0574 78.7596 56.2421 79.329 54.1373C79.8984 52.0325 79.659 49.7907 78.6579 47.8536C77.6568 45.9165 75.9667 44.4245 73.9203 43.6715L70.2851 50.1842H69.2133L73.0456 43.3982C72.3435 43.2224 71.6225 43.1339 70.8988 43.1348ZM81.1669 43.5946H88.3669L84.5354 50.1842H85.608L89.2898 43.5946H94.0402L90.2086 50.1842H91.2813L94.9631 43.5946H97.5682V60.1456H81.171L81.1669 43.5946ZM98.9436 43.5946H110.897L107.066 50.1842H108.138L111.82 43.5946H118.104L108.449 59.9926L98.9436 43.5946ZM62.474 62.9299H118.188V64.0115H62.474V62.9299ZM70.4389 67.0077C68.8311 66.9406 67.2404 67.3604 65.875 68.2121C64.5097 69.0639 63.4333 70.3079 62.7866 71.7815C62.1399 73.2551 61.953 74.8895 62.2504 76.471C62.5479 78.0525 63.3158 79.5074 64.4537 80.6453C65.5916 81.7832 67.0465 82.5512 68.628 82.8486C70.2095 83.1461 71.844 82.9593 73.3176 82.3126C74.7911 81.6659 76.0353 80.5894 76.887 79.224C77.7388 77.8587 78.1585 76.268 78.0913 74.6601C78.0077 72.6574 77.1747 70.7592 75.7573 69.3418C74.3399 67.9244 72.4417 67.0913 70.4389 67.0077ZM70.4389 69.3404C73.2306 69.3404 75.4961 71.8767 75.4961 75.0104C75.4961 78.144 73.2306 80.6803 70.4389 80.6803C67.6473 80.6803 65.3817 78.144 65.3817 75.0104C65.3817 71.8767 67.6473 69.3404 70.4389 69.3404ZM81.7797 82.6767V67.4986H85.1514L89.289 78.8394L93.5795 67.4986H96.9513V82.6702H94.6522V70.5611L90.2078 82.6702H88.5223L84.078 70.5611V82.6702L81.7797 82.6767ZM107.372 82.6767L100.323 67.5051H103.235L108.599 78.999L113.962 67.5051H116.72L109.52 82.6767H107.372Z" fill="white"/>
</g>
</g>
</g>
<defs>
<clipPath id="clip0_3_279">
<rect width="180" height="123.72" fill="white" transform="translate(0 0.910156)"/>
</clipPath>
<clipPath id="clip1_3_279">
<rect width="180" height="123.72" fill="white" transform="translate(0 0.910156)"/>
</clipPath>
<clipPath id="clip2_3_279">
<rect width="180" height="122.727" fill="white" transform="translate(0 1.40674)"/>
</clipPath>
</defs>
</svg>
