<svg width="180" height="124" viewBox="0 0 180 124" fill="none" xmlns="http://www.w3.org/2000/svg">
<g clip-path="url(#clip0_3_237)">
<g clip-path="url(#clip1_3_237)">
<g clip-path="url(#clip2_3_237)">
<path fill-rule="evenodd" clip-rule="evenodd" d="M120.298 89.8748C120.992 89.8915 121.664 89.6322 122.166 89.1539C122.669 88.6755 122.961 88.0173 122.978 87.3237V78.8662H127.6V88.2229C127.6 91.3909 124.323 93.9583 120.279 93.9583C116.236 93.9583 112.958 91.3901 112.958 88.2229V78.8662H117.615V87.3245C117.633 88.0184 117.926 88.6768 118.429 89.155C118.932 89.6333 119.604 89.8921 120.298 89.8748ZM142.798 68.8115H138.107V93.4314H142.798V68.8115ZM134.868 68.8115H130.177V93.4314H134.868V68.8115ZM47.601 77.0482C47.5646 77.8978 47.1929 78.6983 46.5674 79.2743C45.9418 79.8504 45.1134 80.1549 44.2636 80.1212H43.1051V85.7389L48.0911 93.4298H53.973L47.0798 83.6165C48.7466 83.2301 50.2113 82.2404 51.1918 80.8383C52.1723 79.4362 52.5992 77.7207 52.3902 76.0226C52.1812 74.3244 51.3511 72.7637 50.0598 71.6412C48.7685 70.5187 47.1075 69.9138 45.3968 69.9431H36.8182V93.4347H41.8091V73.9783H44.3585C44.774 73.963 45.1883 74.0307 45.5773 74.1774C45.9663 74.3241 46.3222 74.5469 46.6241 74.8327C46.926 75.1185 47.1678 75.4617 47.3356 75.8421C47.5033 76.2225 47.5936 76.6325 47.601 77.0482ZM58.3846 87.1061C58.3846 87.1061 58.3846 87.156 58.3846 87.2656C58.4201 88.0765 58.7762 88.8401 59.3746 89.3884C59.973 89.9368 60.7647 90.2251 61.5755 90.1898C62.1844 90.2025 62.7842 90.0415 63.3049 89.7256C63.8255 89.4097 64.2454 88.952 64.5153 88.4061L68.3231 90.1636C67.6344 91.3722 66.6412 92.3794 65.4423 93.085C64.2435 93.7905 62.8807 94.1697 61.4898 94.1849C60.0988 94.2001 58.7281 93.8508 57.514 93.1717C56.3 92.4925 55.285 91.5073 54.5701 90.314C53.8552 89.1207 53.4652 87.761 53.4391 86.3702C53.4129 84.9794 53.7514 83.606 54.421 82.3866C55.0906 81.1673 56.0678 80.1446 57.2554 79.4203C58.443 78.696 59.7996 78.2953 61.1902 78.2582C65.4717 78.2582 68.832 81.0401 68.76 86.121C68.7625 86.4488 68.7475 86.7766 68.715 87.1028L58.3846 87.1061ZM64.098 84.4061C64.098 83.646 63.7961 82.9171 63.2587 82.3797C62.7212 81.8423 61.9923 81.5404 61.2323 81.5404C60.4723 81.5404 59.7434 81.8423 59.206 82.3797C58.6685 82.9171 58.3666 83.646 58.3666 84.4061H64.098ZM82.7288 93.4306V91.7942C82.1145 92.4312 81.3794 92.9392 80.5664 93.2886C79.7534 93.638 78.8789 93.8217 77.994 93.8291C74.1207 93.8291 70.9805 90.3927 70.9805 86.1561C70.9805 81.9196 74.1207 78.4832 77.994 78.4832C79.7654 78.4919 81.4609 79.2038 82.7075 80.4624V68.8115H87.3826L87.3892 93.4322L82.7288 93.4306ZM82.7681 86.067C82.7076 85.3993 82.4543 84.7636 82.0391 84.2373C81.6238 83.711 81.0644 83.3169 80.4291 83.1028C79.7938 82.8888 79.11 82.8641 78.4609 83.0317C77.8118 83.1994 77.2254 83.5522 76.7732 84.0471C76.3211 84.542 76.0226 85.1578 75.9141 85.8194C75.8056 86.4809 75.8918 87.1598 76.1623 87.7732C76.4327 88.3866 76.8757 88.9082 77.4373 89.2743C77.9988 89.6405 78.6548 89.8355 79.3252 89.8355C80.282 89.7907 81.182 89.3682 81.8276 88.6606C82.4733 87.953 82.8118 87.0182 82.7689 86.0612L82.7681 86.067ZM111.323 86.697C111.323 90.3739 108.127 93.3701 104.158 93.4347H93.8054V69.9431H101.824C104.5 69.9431 106.481 70.6336 107.6 71.8658C108.683 73.0019 109.288 74.5101 109.292 76.0794C109.282 76.9421 109.093 77.7934 108.737 78.5792C108.381 79.3651 107.866 80.0685 107.224 80.6449C110.383 82.1135 111.325 84.0207 111.325 86.6953L111.323 86.697ZM106.216 86.3329C106.226 85.9419 106.158 85.5529 106.016 85.1887C105.874 84.8244 105.66 84.4923 105.388 84.2118C105.115 83.9313 104.789 83.7081 104.429 83.5553C104.069 83.4025 103.682 83.3231 103.291 83.322H100.304V79.0993H101.934C102.594 79.0993 103.227 78.8371 103.694 78.3703C104.161 77.9036 104.423 77.2705 104.423 76.6104C104.427 75.9355 104.171 75.2849 103.707 74.7945C103.243 74.304 102.608 74.0117 101.934 73.9783H98.8045V89.3552H103.291C103.684 89.3556 104.073 89.2768 104.435 89.1237C104.796 88.9706 105.124 88.7462 105.397 88.4639C105.67 88.1817 105.884 87.8473 106.025 87.4808C106.166 87.1142 106.232 86.723 106.219 86.3304L106.216 86.3329ZM109.465 54.5874C109.292 54.6098 109.117 54.621 108.943 54.621C108.844 54.621 108.757 54.621 108.676 54.6144C108.595 54.6079 108.538 54.6095 108.473 54.6095C108.378 54.6082 108.284 54.6159 108.191 54.6324H108.172L108.162 54.6496C107.982 54.9472 107.878 55.2843 107.858 55.6314C107.906 56.0315 108.316 56.1141 108.624 56.1763C108.745 56.2037 108.869 56.219 108.992 56.2221C109.08 56.2332 109.169 56.218 109.247 56.1785C109.326 56.139 109.392 56.0771 109.435 56.0004C109.597 55.6036 109.713 55.1897 109.781 54.7666C109.786 54.7466 109.787 54.7257 109.782 54.7055C109.778 54.6854 109.769 54.6665 109.756 54.6504C109.727 54.6241 109.692 54.6039 109.655 54.5913C109.618 54.5786 109.578 54.5737 109.539 54.5768C109.515 54.5793 109.491 54.5834 109.468 54.5891L109.465 54.5874ZM131.915 55.9783C131.692 55.7063 131.422 55.4763 131.118 55.2992C131.011 55.2318 130.909 55.1586 130.81 55.08L130.756 55.0399C130.696 54.9865 130.617 54.9574 130.537 54.9581C130.396 54.9769 130.264 55.0321 130.151 55.1182C130.039 55.2044 129.951 55.3184 129.896 55.449C129.886 55.6322 130.147 55.9562 130.488 56.3612L130.561 56.448C130.626 56.5371 130.709 56.6121 130.804 56.6683C130.899 56.7246 131.005 56.761 131.114 56.7752C131.212 56.7754 131.308 56.7559 131.398 56.7178C131.487 56.6797 131.568 56.6238 131.636 56.5535C131.767 56.4431 132.037 56.1608 131.917 55.9832L131.915 55.9783ZM133.333 58.3404C133.286 58.2483 133.247 58.1522 133.216 58.0532C133.187 57.9182 133.169 57.7751 133.152 57.6368C133.136 57.4335 133.095 57.233 133.028 57.0403C132.979 56.9394 132.904 56.8539 132.809 56.7933C132.715 56.7327 132.606 56.6992 132.494 56.6967C132.417 56.6965 132.341 56.7145 132.272 56.7491C131.938 56.9127 131.741 57.0935 131.796 57.4691C131.955 57.9539 132.086 58.4472 132.19 58.9467C132.203 59.0285 132.259 59.2993 132.389 59.2993C132.399 59.2994 132.409 59.2981 132.419 59.2952L133.375 58.9811C133.397 58.9751 133.418 58.9642 133.436 58.9492C133.453 58.9342 133.467 58.9154 133.477 58.8943C133.535 58.77 133.434 58.554 133.337 58.3445L133.333 58.3404ZM131.645 59.1013L131.65 59.1406C131.599 59.1522 131.549 59.1607 131.497 59.166C131.398 59.1774 131.209 59.1815 131.052 59.1922C130.895 59.2028 130.725 59.2159 130.556 59.2159C130.207 59.2449 129.86 59.1356 129.59 58.9115C129.411 58.7384 129.252 58.5464 129.115 58.3388C128.9 58.0369 128.729 57.798 128.423 57.798C128.312 57.8019 128.204 57.8298 128.104 57.8798C127.886 58.0373 127.624 58.1231 127.354 58.1252C127.2 58.1271 127.047 58.0993 126.904 58.0434C126.686 57.949 126.486 57.8166 126.314 57.6523C126.19 57.5401 126.055 57.4396 125.912 57.3521C125.092 56.7464 124.103 56.4144 123.083 56.403C122.772 56.4027 122.461 56.4362 122.157 56.5028C122.04 56.5346 121.919 56.5508 121.798 56.5511C121.296 56.5009 120.819 56.3075 120.423 55.9939C120.318 55.926 120.212 55.8581 120.107 55.7951C119.757 55.5817 119.463 55.2897 119.246 54.9422C119.03 54.5947 118.898 54.2014 118.861 53.7938C118.791 53.4813 118.742 53.1649 118.712 52.8463C118.732 52.7596 118.756 52.713 118.895 52.6262C118.925 52.606 118.96 52.5947 118.996 52.5935C119.022 52.5942 119.048 52.6022 119.07 52.6167C119.092 52.6311 119.11 52.6514 119.122 52.6753C119.343 53.2552 119.676 53.7857 120.103 54.2363C120.53 54.6869 121.042 55.0487 121.609 55.3009C121.908 55.4188 122.229 55.4764 122.551 55.4702C122.828 55.4649 123.106 55.4436 123.381 55.4064C123.673 55.3672 123.968 55.3448 124.263 55.3393C124.46 55.3382 124.657 55.3549 124.85 55.3892C125.851 55.6016 126.774 56.0825 127.522 56.7802L127.643 56.8742C127.656 56.8797 127.671 56.8822 127.685 56.8814C127.7 56.8807 127.714 56.8768 127.727 56.87C127.74 56.8632 127.751 56.8537 127.76 56.8422C127.769 56.8306 127.775 56.8173 127.778 56.8031C127.78 56.7831 127.774 56.7632 127.763 56.7466C127.346 56.1917 126.805 55.7421 126.184 55.4336C125.562 55.1252 124.877 54.9665 124.183 54.9703C124.06 54.9638 123.937 54.9684 123.815 54.9842C123.557 55.0288 123.296 55.0561 123.035 55.0661C122.504 55.0755 121.978 54.9521 121.507 54.707C121.035 54.462 120.633 54.1031 120.335 53.6629C119.896 53.0293 119.598 52.3093 119.46 51.5511C119.347 50.6638 119.147 49.7896 118.864 48.9411C118.825 48.8413 118.741 48.8004 118.664 48.8413C118.642 48.8533 118.625 48.8716 118.614 48.8939C118.603 48.9161 118.599 48.9412 118.603 48.9657C118.603 48.9739 118.603 48.9821 118.603 48.9894C118.603 48.9968 118.61 49.0344 118.62 49.0942C118.83 49.9558 118.849 50.8532 118.676 51.723C118.547 52.042 118.32 52.312 118.028 52.4945C117.737 52.6771 117.395 52.7627 117.052 52.7392C116.962 52.7457 116.869 52.7481 116.77 52.7481C116.493 52.7481 116.217 52.7236 115.952 52.6991C115.687 52.6745 115.396 52.6492 115.107 52.6492C115.035 52.6492 114.964 52.6492 114.896 52.6492C114.258 52.6667 113.623 52.7414 112.999 52.8725C112.367 53.0054 111.723 53.081 111.077 53.0983C110.89 53.0983 110.704 53.0893 110.525 53.0713L110.471 53.0656L110.489 53.0149C110.514 52.9461 110.542 52.8758 110.571 52.8038C110.725 52.5009 110.792 52.1607 110.762 51.822C110.739 51.7303 110.655 51.7123 110.549 51.7647C110.403 51.8802 110.303 52.0446 110.268 52.2278C110.235 52.3501 110.184 52.4668 110.116 52.5739C109.934 52.8785 109.693 53.1439 109.408 53.3546C109.122 53.5653 108.798 53.7171 108.453 53.8011C107.99 54.1854 107.564 54.6122 107.181 55.0759C107.123 55.1501 107.084 55.2373 107.067 55.33C107.051 55.4226 107.057 55.5179 107.085 55.6077C107.358 56.2508 108.029 56.4152 108.677 56.5748C108.808 56.6119 108.941 56.6393 109.076 56.6566C109.215 56.6665 109.355 56.637 109.479 56.5713C109.602 56.5056 109.705 56.4064 109.775 56.2852C109.858 56.1418 109.929 55.9918 109.988 55.8368C110.161 55.4179 110.377 54.9441 110.87 54.9171C111.197 54.9106 112.401 54.9171 112.401 54.9171H112.471C112.507 54.9159 112.543 54.922 112.577 54.9349C112.611 54.9479 112.641 54.9674 112.667 54.9925C112.693 55.0175 112.714 55.0475 112.728 55.0806C112.742 55.1138 112.749 55.1495 112.75 55.1855C112.747 55.2788 112.716 55.3692 112.66 55.4441C112.595 55.5406 112.536 55.6406 112.481 55.7435C112.3 56.1127 112.041 56.4382 111.722 56.6975C111.629 56.7308 111.531 56.7463 111.432 56.7433C111.15 56.7589 111.023 56.7859 110.949 57.1745C110.896 57.5736 110.691 57.9367 110.376 58.1874C110.175 58.3799 109.906 58.486 109.628 58.4828C109.351 58.4704 109.076 58.4152 108.816 58.3191C108.351 58.1488 107.878 58.0051 107.397 57.8888C107.044 57.7963 106.679 57.7006 106.333 57.5844C106.16 57.5179 106.008 57.4046 105.894 57.2571C105.79 57.1184 105.648 57.0134 105.485 56.9552C105.349 56.9334 105.21 56.937 105.076 56.9659C104.991 56.9814 104.905 56.9904 104.818 56.9929C104.745 56.9965 104.671 56.9831 104.604 56.9535C104.536 56.924 104.477 56.8792 104.429 56.8227C104.356 56.7283 104.297 56.6228 104.256 56.5102C102.665 58.8676 100.517 60.7954 98.0012 62.122C95.4857 63.4486 92.6813 64.1329 89.8375 64.1142C86.9936 64.0954 84.1985 63.374 81.7008 62.0143C79.203 60.6546 77.08 58.6986 75.5206 56.3203C75.4274 56.4701 75.3308 56.619 75.2285 56.7679C74.955 56.9983 74.6038 57.1154 74.2467 57.0951C74.1706 57.1009 74.0945 57.1066 74.0193 57.114H73.6814C72.6486 57.6341 71.569 58.0555 70.4569 58.3723C70.298 58.4218 70.1324 58.4466 69.966 58.446C69.5984 58.4525 69.2407 58.3268 68.958 58.0917C68.7011 57.8674 68.4938 57.5921 68.3493 57.2833C68.2838 57.1647 68.2159 57.0428 68.1423 56.9299C68.087 56.8699 68.0183 56.8237 67.9418 56.7953C67.8653 56.7669 67.7832 56.7569 67.7021 56.7662C67.6317 56.7662 67.5605 56.7711 67.4918 56.7761C67.4231 56.781 67.365 56.7851 67.3085 56.7851C67.2545 56.7928 67.1993 56.7863 67.1485 56.7662C67.0977 56.7461 67.0531 56.7131 67.0189 56.6705L66.9084 56.4856C66.663 56.07 66.4265 55.6772 66.186 55.2485C66.1582 55.2032 66.1414 55.1519 66.1372 55.0989C66.1329 55.0458 66.1412 54.9925 66.1614 54.9433C66.1803 54.9013 66.209 54.8644 66.2452 54.8359C66.2814 54.8074 66.324 54.7881 66.3693 54.7797C66.7906 54.6803 67.2181 54.6092 67.6489 54.567C67.836 54.5378 68.0275 54.5555 68.2061 54.6185C68.3847 54.6814 68.545 54.7877 68.6724 54.9278C68.8523 55.1506 69.0129 55.3881 69.1527 55.638C69.3766 56.1095 69.731 56.507 70.1738 56.7834C70.2158 56.8007 70.2611 56.808 70.3064 56.8047C70.8293 56.7422 71.3376 56.5897 71.8085 56.3539C72.0793 56.1902 72.4434 55.9292 72.4434 55.5537C72.3931 55.1882 72.261 54.8388 72.0571 54.5315C71.8531 54.2241 71.5825 53.9666 71.2653 53.7782C70.5551 53.4305 69.9253 52.9384 69.4162 52.3333C69.2381 52.0581 69.1107 51.7533 69.0398 51.4333C69.0185 51.3589 68.9973 51.2844 68.9752 51.2116C68.9691 51.1924 68.9566 51.1758 68.9398 51.1646C68.923 51.1534 68.9028 51.1484 68.8827 51.1502C68.8432 51.1506 68.8048 51.1635 68.7731 51.1871C68.5726 51.3638 68.6913 51.7492 68.7731 52.0052C68.7854 52.0437 68.796 52.0797 68.8058 52.1124L68.8156 52.1468C68.8713 52.3391 68.9146 52.4912 68.7895 52.5935C68.5667 52.7527 68.295 52.8283 68.022 52.8071C67.8739 52.8071 67.7274 52.7956 67.5859 52.7842C67.5041 52.7776 67.4272 52.7719 67.3544 52.7678C66.9534 52.7391 66.5551 52.6801 66.1631 52.5911C65.714 52.4852 65.2554 52.4246 64.7943 52.4102C64.6904 52.4102 64.5873 52.4143 64.4874 52.4233C64.2159 52.4431 63.9455 52.4769 63.6775 52.5248C63.3042 52.5939 62.9262 52.6347 62.5467 52.6467C62.3222 52.6818 62.0923 52.6477 61.8877 52.5488C61.6831 52.45 61.5134 52.2912 61.4013 52.0936C61.1303 51.1505 61.1199 50.1516 61.371 49.203C61.371 49.1212 61.2663 49.0819 61.2074 49.0729C61.1938 49.0674 61.1794 49.0643 61.1648 49.0639C61.139 49.0639 61.1138 49.0718 61.0925 49.0864C61.0711 49.101 61.0547 49.1216 61.0454 49.1457C60.9451 49.5562 60.8675 49.9719 60.813 50.391C60.7477 50.9252 60.6382 51.4531 60.4857 51.9692C60.1854 52.8934 59.5566 53.6753 58.7184 54.1669C57.9262 54.5414 57.0646 54.7468 56.1886 54.7699C54.7372 54.7961 52.9388 55.0153 51.8842 56.5142C51.8305 56.6 51.7928 56.6948 51.7729 56.7941C51.7662 56.814 51.7639 56.8352 51.7663 56.8562C51.7687 56.8771 51.7757 56.8972 51.7868 56.9151C51.7982 56.9257 51.8117 56.9338 51.8265 56.9387C51.8412 56.9437 51.8568 56.9454 51.8723 56.9439C51.8878 56.9424 51.9028 56.9375 51.9162 56.9298C51.9297 56.922 51.9414 56.9114 51.9504 56.8988C52.4582 56.34 53.0828 55.8998 53.7797 55.6094C54.4766 55.319 55.2289 55.1854 55.9833 55.2182C56.0765 55.2182 56.1704 55.2199 56.2647 55.2232C57.6237 55.2232 59.319 55.0415 60.3556 53.6244C60.5875 53.324 60.8017 53.0104 60.9971 52.6852L61.0216 52.6451L61.6115 53.0959L61.6001 53.1253C61.6001 53.1319 61.3407 53.7742 61.191 54.0703C60.9479 54.6113 60.5712 55.0815 60.0963 55.4367C59.9801 55.5005 59.8336 55.5774 59.6675 55.665C59.3828 55.8147 59.0285 55.9996 58.6759 56.2001C58.3582 56.3724 58.0015 56.4601 57.6401 56.4545C57.4193 56.4552 57.1993 56.4277 56.9855 56.3727C56.5304 56.2743 56.0674 56.2173 55.602 56.2025C55.2751 56.1911 54.9499 56.2535 54.6504 56.385C54.4354 56.5314 54.2346 56.6977 54.0507 56.8816C53.9272 56.997 53.7995 57.1172 53.6711 57.2179C53.2458 57.5848 52.7074 57.7942 52.146 57.8111C52.0131 57.7982 51.8818 57.7721 51.7541 57.7333C51.6171 57.6902 51.4753 57.6644 51.3319 57.6564C51.2635 57.6537 51.1953 57.6662 51.1323 57.6931C51.0694 57.72 51.0132 57.7606 50.9678 57.8119C50.8083 57.9816 50.6728 58.1723 50.5653 58.3789C50.4187 58.7056 50.1724 58.9774 49.8616 59.1553C49.6582 59.2669 49.4292 59.3233 49.1973 59.319C48.9258 59.3087 48.6562 59.2697 48.393 59.2028C48.2024 59.1575 48.0092 59.1236 47.8145 59.1013L47.7671 59.0972L47.7818 59.022C47.7998 58.9401 47.817 58.8583 47.8342 58.7765C47.9 58.2395 48.1016 57.7281 48.42 57.2907L48.4306 57.2784H48.447C48.6893 57.2711 48.9225 57.185 49.1114 57.033C49.355 56.7969 49.5643 56.5278 49.7332 56.2336L49.7463 56.2205C49.8567 56.1518 49.9704 56.0863 50.0858 56.0192C50.5714 55.7917 50.9905 55.4435 51.3033 55.008C51.4039 54.7944 51.5045 54.5383 51.6011 54.2904C51.6983 53.9736 51.8422 53.673 52.0282 53.3986C52.0946 53.3334 52.1811 53.2925 52.2736 53.2824C52.3178 53.2775 52.4013 53.2726 52.5068 53.2677C52.7146 53.2571 52.9977 53.2415 53.2661 53.208C53.8159 53.0627 54.3304 52.8068 54.7781 52.4561C54.8426 52.3899 54.888 52.3075 54.9096 52.2176C54.9312 52.1278 54.9282 52.0338 54.9008 51.9455C54.8853 51.8899 54.8395 51.7819 54.7822 51.6371C54.604 51.2338 54.4632 50.8151 54.3616 50.3861C54.3265 50.2003 54.3068 49.761 54.2855 49.2946C54.2724 49.0082 54.2594 48.7121 54.2414 48.4511C54.2324 48.3169 54.1816 48.3169 54.1546 48.3169C54.1358 48.3173 54.1171 48.3201 54.099 48.3251C53.5054 48.5006 52.8922 48.6015 52.2736 48.6253C52.0775 48.6259 51.8816 48.6108 51.6878 48.5803C51.0701 48.5105 50.4817 48.2789 49.9821 47.909C49.4825 47.5391 49.0893 47.044 48.8422 46.4735C48.6298 45.932 48.5603 45.3449 48.6404 44.7687C48.7205 44.1925 48.9475 43.6467 49.2995 43.1836C49.9056 42.4832 50.5802 41.8452 51.3131 41.2789C51.4514 41.1643 51.5896 41.0506 51.7263 40.9352C51.8629 40.8199 51.9275 40.7291 51.9144 40.6121C51.9015 40.5197 51.8621 40.4331 51.8009 40.3627C51.7398 40.2923 51.6596 40.241 51.57 40.2152C51.4004 40.1794 51.2269 40.1648 51.0537 40.1719H50.8901H50.7264C50.4593 40.184 50.1925 40.1411 49.9426 40.0459C49.9077 40.0333 49.8731 40.02 49.8387 40.0058C49.4117 39.7997 49.0392 39.4962 48.7509 39.1197C48.4627 38.7433 48.267 38.3044 48.1795 37.8384C48.1378 37.4389 48.233 37.0371 48.4494 36.6987C48.9939 37.0995 49.5824 37.4366 50.2036 37.7034C50.4622 37.7672 50.715 37.8032 50.9793 37.8548C51.0177 37.8646 51.0922 37.8728 51.1331 37.8834L51.2051 37.9014C51.9453 38.0326 52.6406 38.348 53.2268 38.8186C53.471 39.1171 53.613 39.4861 53.6317 39.8712C53.6504 40.2564 53.5449 40.6374 53.3307 40.9582C52.8823 41.5022 52.3761 41.996 51.8212 42.4309C51.4612 42.7369 51.0897 43.0535 50.7616 43.3808C50.4329 43.6878 50.1938 44.0783 50.0699 44.5106C49.946 44.943 49.9418 45.4008 50.058 45.8353C50.2011 46.2275 50.4543 46.5701 50.7872 46.822C51.1201 47.0739 51.5186 47.2245 51.9349 47.2557H52.0167C53.0831 47.1809 54.1076 46.8112 54.9761 46.188C55.0579 46.1413 55.1544 46.08 55.2346 46.0243C55.3909 45.9229 55.7255 45.6676 55.971 45.4753C56.6952 44.8244 57.5415 44.3238 58.4607 44.0026C58.8666 43.8971 59.2822 43.8333 59.7011 43.812C60.0896 43.7877 60.4739 43.7185 60.8465 43.6058C61.6455 43.2664 62.3687 42.771 62.9738 42.1486C63.7576 41.4754 64.7675 41.1245 65.7998 41.1668C66.2997 41.1668 66.3635 41.1071 66.9723 40.5319C67.104 40.4075 67.2611 40.2594 67.4534 40.0835C68.1257 39.5446 68.911 39.1645 69.7508 38.9716C70.1721 38.8504 70.5858 38.7039 70.9895 38.5331C71.496 38.3392 71.9768 38.0843 72.4214 37.7738C72.6881 37.6036 72.9638 37.4277 73.2461 37.278C73.6954 37.0941 74.1768 37.0012 74.6624 37.0047C75.042 37.0006 75.4195 37.0617 75.7784 37.1855L75.9698 37.2559C76.6413 36.3384 77.3964 35.4852 78.2255 34.7072C81.4136 31.7627 85.5945 30.128 89.9343 30.1294C94.2742 30.1308 98.4541 31.768 101.64 34.7146C102.541 35.5553 103.356 36.4833 104.073 37.485C104.109 37.4539 104.146 37.4244 104.182 37.3933C104.526 37.046 104.968 36.8119 105.449 36.7224C105.535 36.7151 105.622 36.7118 105.707 36.7118C106.612 36.7596 107.469 37.128 108.126 37.7509C108.309 37.8883 108.471 38.0515 108.608 38.2352C108.782 38.5084 109.044 38.7146 109.351 38.8202C110.314 38.9926 111.253 39.2854 112.143 39.6916C112.664 39.9768 113.161 40.304 113.628 40.6702C113.759 40.7659 113.89 40.8616 114.02 40.9549C114.301 41.1304 114.621 41.2325 114.951 41.2519C115.176 41.277 115.398 41.3235 115.614 41.391C116.219 41.5906 116.782 41.9014 117.274 42.3073C117.462 42.4432 117.657 42.5847 117.853 42.7123C118.443 43.1065 119.117 43.3565 119.822 43.4422C120.314 43.5228 120.796 43.6581 121.258 43.8455C122.288 44.2305 123.259 44.7573 124.144 45.4107C124.744 45.8308 125.369 46.2133 126.016 46.5562C126.536 46.8295 127.114 46.9745 127.701 46.9792C128.123 46.99 128.54 46.8856 128.908 46.6772C129.183 46.5187 129.403 46.2811 129.541 45.9954C129.679 45.7097 129.728 45.389 129.681 45.0752C129.37 44.0333 128.737 43.1167 127.873 42.4571C127.349 41.996 126.882 41.4741 126.482 40.9025C126.364 40.7091 126.287 40.4938 126.255 40.2696C126.223 40.0454 126.236 39.817 126.295 39.5983C126.484 39.1836 126.765 38.818 127.118 38.5299C127.471 38.2418 127.885 38.0391 128.329 37.9374C128.585 37.8553 128.846 37.7891 129.111 37.7394C129.524 37.6766 129.924 37.5476 130.296 37.3573C130.453 37.2588 130.598 37.1418 130.727 37.0088L130.828 36.9139C130.849 36.891 130.879 36.877 130.91 36.8746C130.997 36.8746 131.022 36.9924 131.042 37.0873C131.048 37.1135 131.053 37.1381 131.059 37.1561C131.191 37.6619 131.172 38.1953 131.004 38.6904C130.836 39.1855 130.527 39.6206 130.115 39.942C129.771 40.1508 129.393 40.2979 128.999 40.3764L128.917 40.3969C128.864 40.4108 128.8 40.4255 128.729 40.4419C128.424 40.5114 127.939 40.6251 127.946 40.8125C127.952 40.9999 128.195 41.211 128.398 41.3779C128.438 41.4114 128.48 41.4442 128.515 41.4761C130.07 42.7852 130.888 44.0582 131.013 45.3788C131.001 45.9774 130.819 46.5604 130.49 47.0603C130.16 47.5601 129.696 47.9563 129.15 48.2032C128.625 48.4257 128.06 48.5411 127.49 48.5427C127.167 48.5359 126.845 48.4931 126.531 48.4151C126.467 48.3995 126.415 48.3905 126.347 48.3709C126.255 48.3396 126.16 48.3206 126.063 48.3144C126.02 48.308 125.975 48.3162 125.937 48.3376C125.898 48.3591 125.868 48.3927 125.851 48.4331C125.83 48.6564 125.865 48.8816 125.954 49.0876C125.981 49.1694 126.009 49.2512 126.031 49.3372C126.153 49.9635 126.116 50.6102 125.926 51.219C125.891 51.3563 125.846 51.4909 125.791 51.6215C125.701 51.7659 125.653 51.9329 125.654 52.103C125.655 52.2732 125.705 52.4396 125.796 52.5829C125.959 52.7487 126.157 52.8765 126.374 52.9572C126.592 53.0378 126.826 53.0692 127.057 53.0492C127.238 53.0534 127.419 53.0681 127.598 53.0934C127.943 53.1507 128.067 53.4837 128.167 53.748C128.177 53.7782 128.189 53.8077 128.2 53.8363C128.251 53.9754 128.306 54.1808 128.364 54.3976C128.427 54.6626 128.509 54.9226 128.609 55.1757C128.725 55.3499 128.869 55.5032 129.036 55.629C129.225 55.7877 129.403 55.9597 129.567 56.1436C129.681 56.2699 129.789 56.4017 129.89 56.5388C130.221 56.9708 130.565 57.42 131.117 57.3856H131.146L131.158 57.4126C131.406 57.9488 131.571 58.5196 131.648 59.1054L131.645 59.1013ZM105.329 40.3764C105.221 40.3769 105.115 40.4072 105.023 40.464C104.249 41.0128 103.644 41.7653 103.273 42.6379C103.134 42.995 103.096 43.3833 103.163 43.7604C103.182 43.7823 103.21 43.7956 103.239 43.7972C103.296 43.7972 103.321 43.7408 103.337 43.7154C103.447 43.4615 103.581 43.2187 103.737 42.9905C104.132 42.4391 104.595 41.9403 105.116 41.5063C105.261 41.3738 105.404 41.2437 105.541 41.1128C105.622 41.0518 105.678 40.9636 105.699 40.8646C105.72 40.7655 105.705 40.6622 105.656 40.5736C105.628 40.5121 105.583 40.4605 105.525 40.4259C105.467 40.3914 105.4 40.3755 105.333 40.3805L105.329 40.3764ZM75.1385 42.4219C75.2259 42.5354 75.3032 42.6564 75.3693 42.7835C75.6228 43.3752 75.7956 43.9982 75.8831 44.6359C75.9003 44.7251 75.951 44.7349 75.9715 44.7349C76.0181 44.7349 76.0614 44.6899 76.0811 44.6203C76.2852 43.8722 76.2532 43.0792 75.9894 42.3499C75.8842 42.0725 75.6941 41.8354 75.4462 41.6724C75.3948 41.6491 75.339 41.6371 75.2825 41.6372C75.2289 41.6339 75.1752 41.6435 75.1261 41.6653C75.077 41.6871 75.0338 41.7204 75.0003 41.7624C74.8464 42.0202 74.9814 42.2067 75.1402 42.426L75.1385 42.4219ZM106.661 51.714C106.504 51.5527 106.32 51.4215 106.116 51.327C105.813 51.1777 105.553 50.9552 105.358 50.6798C104.724 49.6826 104.406 48.5169 104.447 47.3359L104.439 47.2197C104.433 47.1686 104.414 47.1201 104.383 47.0793C104.351 47.0385 104.31 47.007 104.262 46.9882C104.255 46.9869 104.247 46.9869 104.24 46.9882C104.208 46.9894 104.176 47.0016 104.151 47.0228C104.126 47.044 104.108 47.073 104.101 47.1052C103.919 47.9434 103.962 48.8148 104.223 49.6317C104.383 50.2025 104.598 50.7565 104.864 51.2861C104.874 51.3192 104.876 51.3541 104.871 51.3884C104.866 51.4226 104.853 51.4552 104.834 51.484C104.815 51.5128 104.79 51.537 104.76 51.5548C104.73 51.5726 104.697 51.5837 104.663 51.5872C104.066 51.6158 103.468 51.5903 102.877 51.5111C102.278 51.361 101.73 51.054 101.289 50.6217C101.14 50.5006 100.987 50.3762 100.835 50.265C100.835 50.265 100.747 50.2257 100.713 50.2592C100.68 50.2928 100.713 50.3852 100.713 50.3852C100.853 50.8234 101.108 51.2165 101.45 51.5242C101.755 51.8147 102.001 52.1621 102.173 52.5469C102.281 52.8452 102.433 53.1258 102.624 53.3798C102.862 53.6782 103.036 54.0232 103.133 54.3927C103.14 54.4259 103.141 54.4603 103.136 54.4939C103.13 54.5276 103.118 54.5598 103.1 54.5887C103.082 54.6176 103.058 54.6426 103.03 54.6623C103.003 54.6821 102.971 54.6961 102.938 54.7036C102.839 54.7177 102.739 54.7202 102.64 54.711C102.541 54.6863 102.436 54.6917 102.34 54.7265C102.339 54.8674 102.356 55.0079 102.39 55.1446C102.463 55.381 102.461 55.6345 102.383 55.8695C102.161 56.2181 101.857 56.6132 101.433 56.6288H101.426H101.419C101.091 56.5175 100.764 56.394 100.447 56.2753C99.999 56.1068 99.5359 55.9317 99.0712 55.7918C98.9673 55.7844 98.8478 55.7803 98.7251 55.7803C98.2865 55.7891 97.8491 55.8285 97.416 55.8982H97.4086H97.4021C97.0333 55.7876 96.7005 55.5812 96.4374 55.3001C96.3444 55.2091 96.2454 55.1244 96.1413 55.0464C96.0964 55.0302 96.049 55.0225 96.0014 55.0235C95.9744 55.022 95.9475 55.0262 95.9222 55.0358C95.897 55.0454 95.8741 55.0602 95.8549 55.0791C94.9737 55.9521 94.0737 56.8521 92.7974 56.8521C92.5674 56.8423 92.4537 56.7548 92.4701 56.6067C92.4701 56.6067 92.4701 56.5797 92.5184 56.5175C92.558 56.4725 92.6034 56.4329 92.6534 56.3997C93.241 55.9773 93.7104 55.411 94.0164 54.7551C94.1233 54.4577 94.2766 54.1791 94.4705 53.9296C94.6596 53.6867 94.8093 53.4156 94.914 53.1262C94.9246 53.0443 94.914 53.0239 94.8674 53.0002C94.8046 53.0064 94.7464 53.0355 94.7037 53.082C94.0164 53.8183 93.6998 54.4729 93.1238 55.1839C92.8887 55.4622 92.579 55.6675 92.2311 55.7756C91.8832 55.8838 91.5116 55.8902 91.1602 55.7942C91.1258 55.7834 91.0952 55.7629 91.0721 55.7352C91.0489 55.7075 91.0342 55.6737 91.0297 55.6379C91.0251 55.6021 91.0309 55.5658 91.0463 55.5332C91.0618 55.5006 91.0862 55.473 91.1168 55.4539C93.3873 53.9812 93.9731 51.7107 94.5393 49.437C94.644 49.0172 94.752 48.5836 94.8665 48.1631C94.9328 47.9364 94.9975 47.709 95.0613 47.4823C95.3788 45.8558 96.1084 44.3379 97.1804 43.074C98.4403 41.7803 99.8298 40.6195 101.327 39.6098C101.999 39.1238 102.686 38.6239 103.354 38.0904C102.658 37.1077 101.863 36.1989 100.982 35.3782C97.971 32.6076 94.0295 31.069 89.9381 31.0672C85.8467 31.0654 81.9038 32.6005 78.8907 35.3683C78.1307 36.0795 77.436 36.8575 76.815 37.6928C76.9295 37.7672 77.0604 37.8564 77.2118 37.9611L80.7611 40.9066L80.8143 40.9582C80.8789 41.0212 80.9542 41.0948 81.0229 41.1676C82.0665 42.3601 83.0363 43.6154 83.9266 44.9263C84.1808 45.3796 84.3525 45.8744 84.4339 46.3876C84.6289 48.282 85.0889 50.1397 85.8003 51.9062C85.8789 52.0187 85.9744 52.1183 86.0834 52.2016C86.2424 52.3332 86.3864 52.4819 86.5129 52.6451C86.6692 52.8652 86.8132 53.1065 86.9523 53.3397C87.2606 53.975 87.7279 54.5198 88.3088 54.9212L88.8447 55.1888C88.8779 55.2042 88.9044 55.231 88.9195 55.2644C88.9345 55.2977 88.937 55.3354 88.9265 55.3704C88.9191 55.4122 88.8987 55.4506 88.8681 55.48C88.8375 55.5094 88.7984 55.5283 88.7564 55.5341C88.6453 55.5582 88.5321 55.5703 88.4184 55.5701C87.9732 55.534 87.5431 55.3915 87.1643 55.1546C86.7856 54.9177 86.4693 54.5932 86.2421 54.2086C85.9488 53.4654 85.3752 52.8671 84.645 52.5428C84.7183 52.688 84.8036 52.8268 84.9003 52.9576C84.9551 53.0394 85.0058 53.109 85.0525 53.1842C85.3539 53.6602 85.5965 54.1709 85.7749 54.7052C86.0393 55.2549 86.4808 55.6998 87.0284 55.9685L87.6829 56.3171C87.8138 56.3801 87.885 56.4692 87.8768 56.5625C87.8703 56.6386 87.8375 56.6983 87.7132 56.7261L87.5945 56.7351H87.462C86.9211 56.7514 86.3831 56.65 85.8852 56.4382C85.3873 56.2263 84.9413 55.9089 84.5779 55.5079C84.4949 55.4007 84.3915 55.311 84.2737 55.2441C84.1559 55.1771 84.026 55.1341 83.8914 55.1176C83.4305 55.6316 82.809 55.9742 82.1283 56.0896C81.4006 55.9324 80.6433 55.9829 79.9429 56.2352L79.6688 56.3334C79.1555 56.5483 78.6121 56.683 78.0578 56.7327C77.8896 56.7427 77.7222 56.7027 77.5766 56.6178C77.4311 56.533 77.3138 56.407 77.2396 56.2557C77.1979 56.1207 77.22 56.0004 77.1709 55.8466C77.1174 55.7126 77.0924 55.5689 77.0973 55.4247C77.1022 55.2805 77.137 55.1388 77.1995 55.0088L77.6414 54.36C77.6398 54.3292 77.6276 54.2999 77.6069 54.277C77.5861 54.2542 77.5581 54.2393 77.5276 54.2348C77.4562 54.2362 77.3859 54.2538 77.3223 54.2863C77.2608 54.3191 77.193 54.3381 77.1234 54.342C77.0982 54.342 77.0732 54.3369 77.0499 54.3269C77.0267 54.3169 77.0058 54.3022 76.9885 54.2838C76.9711 54.2654 76.9578 54.2437 76.9492 54.2199C76.9406 54.1961 76.937 54.1708 76.9385 54.1456C77.0391 53.6337 77.3356 53.1813 77.7649 52.8848C77.8713 52.7874 77.9809 52.6876 78.0791 52.587C78.1724 52.0616 78.4088 51.5721 78.7623 51.1723C78.7468 51.133 78.7178 51.1005 78.6804 51.0807C78.5487 51.102 78.4162 51.1273 78.282 51.1527C77.8486 51.2492 77.4063 51.2999 76.9623 51.3041C76.4585 51.5972 75.8619 51.6873 75.294 51.5561C75.2418 51.5189 75.2035 51.4653 75.1852 51.4039C75.17 51.3255 75.1849 51.2443 75.2269 51.1764C75.5191 50.7673 75.7274 50.3043 75.8398 49.8142C75.9521 49.3241 75.9663 48.8166 75.8815 48.321C75.8659 48.2302 75.8275 48.2179 75.7882 48.2171C75.7219 48.2171 75.6892 48.3046 75.681 48.3504C75.549 49.2516 75.2254 50.114 74.7319 50.8794C74.5756 51.1167 74.1379 51.2132 73.7141 51.3057C73.539 51.3358 73.3664 51.379 73.1978 51.435C73.1381 51.4541 73.0851 51.4901 73.0452 51.5386C73.0053 51.587 72.9802 51.6459 72.9728 51.7082C72.9872 52.0051 73.0916 52.2905 73.2723 52.5264L73.2903 52.5559C73.7049 53.211 74.0668 53.898 74.3727 54.6103C74.3688 55.139 74.2973 55.665 74.16 56.1755C74.1191 56.3138 74.1813 56.3261 74.1952 56.3261C74.2329 56.3214 74.2686 56.3064 74.2983 56.2827C74.6464 55.9006 74.9197 55.4565 75.1042 54.9736C75.1333 54.7518 75.0918 54.5265 74.9855 54.3297L73.7951 51.9799L73.8049 51.9611C73.8529 51.8904 73.9192 51.8342 73.9968 51.7984C74.0744 51.7627 74.1602 51.7488 74.2451 51.7582H74.2696C74.4503 51.7672 74.6276 51.8111 74.7916 51.8874C74.8661 51.9169 74.943 51.9471 75.0207 51.9692L75.0412 51.975L75.0485 51.9946C75.3054 52.7186 75.6552 53.4062 76.0893 54.0401C76.1977 54.2315 76.2543 54.4479 76.2535 54.6678C76.2526 54.8878 76.1943 55.1038 76.0844 55.2943C76.0672 55.3295 76.0484 55.3631 76.0312 55.3982C77.4826 57.7802 79.5234 59.7477 81.9568 61.1111C84.3901 62.4745 87.1338 63.1876 89.9231 63.1816C92.7287 63.1808 95.4872 62.4599 97.9346 61.0879C100.382 59.716 102.436 57.7389 103.901 55.3459C103.859 55.1912 103.819 55.0284 103.786 54.8705C103.746 54.6626 103.769 54.4474 103.853 54.2528L103.877 54.1767L105.003 52.1312L105.054 52.0592C105.117 51.9414 105.219 51.8488 105.343 51.7966C105.352 51.7952 105.362 51.7952 105.372 51.7966C105.651 51.8539 105.915 51.9675 106.148 52.1304C106.207 52.2065 106.148 52.3186 106.082 52.4282C105.865 52.7743 105.123 53.8265 105.001 54.108C104.914 54.386 104.891 54.6805 104.936 54.9687C104.98 55.2568 105.09 55.5309 105.257 55.7697C105.272 55.8006 105.295 55.8264 105.325 55.8433L105.318 55.7664C105.273 55.4388 105.277 55.1063 105.329 54.7797C105.433 54.4267 105.602 54.0964 105.829 53.8061L106.741 52.4602C106.793 52.3402 106.813 52.2088 106.799 52.0787C106.786 51.9487 106.738 51.8244 106.662 51.7181L106.661 51.714ZM80.7423 54.2651C80.7423 54.2651 80.6523 54.4287 80.7079 54.5064C80.7635 54.5841 80.8396 54.6128 81.0769 54.6218C81.3596 54.6377 81.6417 54.5796 81.8951 54.4532C81.9827 54.3433 82.0364 54.2103 82.0497 54.0703C82.0563 54.0098 82.1364 53.5794 81.9679 53.4976C81.8568 53.4478 81.7311 53.4411 81.6153 53.4788C81.4246 53.5457 81.2493 53.6501 81.0997 53.7859C80.95 53.9216 80.829 54.0859 80.7439 54.2692L80.7423 54.2651ZM81.0695 49.3789C81.0965 49.5311 81.1759 49.5515 81.2332 49.5122C81.2905 49.473 81.2937 49.4419 81.4925 49.185C81.6082 49.0205 81.7729 48.8968 81.963 48.8315C82.3009 48.8004 82.8875 49.5532 83.0094 49.8207C83.0907 50.0898 83.1352 50.3685 83.142 50.6495C83.142 50.6782 83.1305 50.8884 83.3056 50.8876C83.3589 50.8882 83.4111 50.8724 83.4551 50.8422C83.499 50.812 83.5325 50.769 83.5511 50.7191C83.6129 50.6016 83.6523 50.4737 83.6673 50.3419C83.7073 50.0946 83.6981 49.8419 83.6403 49.5982C83.5379 49.2404 83.3611 48.9084 83.1215 48.6237C82.9836 48.4803 82.861 48.3229 82.7558 48.1541C82.682 48.0057 82.5885 47.8681 82.4776 47.745C82.4237 47.6626 82.3494 47.5956 82.262 47.5503C82.1746 47.505 82.0769 47.483 81.9785 47.4864C81.8914 47.4888 81.8063 47.5139 81.7317 47.559C81.6571 47.6042 81.5956 47.668 81.5531 47.7441C81.4868 47.8448 81.3076 48.2531 81.3076 48.2531C81.2113 48.432 81.135 48.6211 81.0802 48.8168C81.0281 49.0017 81.0242 49.1969 81.0687 49.3838L81.0695 49.3789ZM99.5523 49.5302C99.5761 49.4822 99.59 49.4298 99.5931 49.3762C99.5962 49.3227 99.5884 49.269 99.5703 49.2185C99.4002 48.8181 99.1867 48.4376 98.9337 48.0837C98.6596 47.7851 98.4944 47.6983 98.3921 47.8006C98.2587 47.9536 98.1295 48.1197 98.0043 48.2801C97.7565 48.6233 97.4714 48.9381 97.1542 49.2185C96.9026 49.449 96.7089 49.7357 96.5889 50.0551C96.4689 50.3746 96.426 50.7178 96.4636 51.057C96.4639 51.0848 96.4708 51.1122 96.4836 51.1369C96.4963 51.1616 96.5147 51.183 96.5373 51.1993C96.5798 51.2363 96.6339 51.2572 96.6903 51.2582C96.7088 51.2584 96.7273 51.2559 96.7451 51.2509L96.7565 51.246C96.8107 51.1986 96.8544 51.1405 96.8847 51.0752C96.915 51.01 96.9312 50.9391 96.9324 50.8671C96.9447 50.7952 96.9447 50.7951 96.9815 50.643C97.1273 50.2203 97.4086 49.8575 97.7817 49.6112C97.8472 49.5556 98.109 49.3592 98.1761 49.3085C98.2925 49.2032 98.4379 49.1354 98.5933 49.1138C98.6029 49.113 98.6125 49.113 98.622 49.1138C98.8077 49.0991 98.8675 49.221 98.9493 49.3592C99.0083 49.4849 99.1053 49.5888 99.2266 49.6562C99.2869 49.6787 99.3532 49.6788 99.4135 49.6566C99.4738 49.6343 99.5242 49.5913 99.5555 49.5352L99.5523 49.5302ZM99.0851 53.8903C98.8913 53.6752 98.6213 53.544 98.3324 53.5246C98.2953 53.5195 98.2576 53.5236 98.2226 53.5364C98.1875 53.5492 98.1561 53.5705 98.1311 53.5982C98.106 53.626 98.0882 53.6594 98.0791 53.6956C98.07 53.7319 98.0698 53.7698 98.0787 53.8061C98.0777 53.9579 98.1115 54.108 98.1776 54.2448C98.2437 54.3815 98.3403 54.5013 98.46 54.5948C98.5841 54.672 98.7278 54.7121 98.874 54.7102C98.9434 54.718 99.0136 54.7075 99.0777 54.6796C99.1417 54.6517 99.1973 54.6075 99.2389 54.5514C99.387 54.2953 99.0982 53.9124 99.0843 53.8952L99.0851 53.8903ZM69.6305 55.0988C69.7324 55.2626 69.8208 55.4344 69.8948 55.6126C70.029 55.9088 70.1444 56.1649 70.281 56.2074C70.3429 56.2257 70.4071 56.2345 70.4716 56.2336C70.8536 56.2054 71.2182 56.0628 71.5181 55.8245C71.6924 55.6772 71.6367 55.5791 71.559 55.449C71.5292 55.4002 71.5019 55.35 71.4772 55.2984C71.4031 55.1457 71.3447 54.9859 71.3029 54.8214C71.2211 54.5236 71.145 54.2683 70.8251 54.3141C70.363 54.3802 69.8968 54.4125 69.4301 54.4107C69.4235 54.4107 69.2665 54.4107 69.2215 54.5187C69.1666 54.6439 69.291 54.7584 69.4227 54.8803C69.4994 54.947 69.5685 55.0219 69.6289 55.1037L69.6305 55.0988ZM47.9634 56.5969C48.0534 56.6779 48.1697 56.7236 48.2907 56.7253C48.3859 56.723 48.4792 56.6983 48.5632 56.6533C48.9933 56.3337 49.3427 55.9179 49.5834 55.4391C49.6366 55.2919 49.4681 55.1569 49.2562 54.9859L49.2308 54.9662C49.1733 54.9309 49.1065 54.9132 49.039 54.9156C48.9715 54.9179 48.9062 54.9401 48.8512 54.9793C48.7694 55.0333 48.6916 55.0865 48.6123 55.143C48.3357 55.3182 48.0696 55.5094 47.8154 55.7157C47.7178 55.8148 47.6597 55.9459 47.6517 56.0847C47.6388 56.1631 47.6567 56.2434 47.7016 56.3089C47.7164 56.34 47.9184 56.5666 47.9618 56.6018L47.9634 56.5969ZM47.0004 56.6124C46.9845 56.6124 46.9686 56.6154 46.9538 56.6214C46.8168 56.6826 46.6942 56.7722 46.5942 56.8841C46.4942 56.9961 46.4191 57.128 46.3737 57.2711C46.3074 58.1563 46.2829 58.2529 46.0407 58.5196C45.9728 58.5949 45.927 58.7692 46.0039 58.8469C46.336 58.9957 46.6822 59.1108 47.0373 59.1905H47.0569C47.1387 59.1676 47.1993 58.968 47.3752 58.3576C47.4701 58.0303 47.5773 57.6564 47.6975 57.3193C47.7049 57.2981 47.7065 57.2653 47.628 57.1557C47.5257 57.0158 47.1919 56.6173 46.9988 56.6173L47.0004 56.6124Z" fill="white"/>
</g>
</g>
</g>
<defs>
<clipPath id="clip0_3_237">
<rect width="180" height="123.72" fill="white" transform="translate(0 0.189941)"/>
</clipPath>
<clipPath id="clip1_3_237">
<rect width="180" height="123.72" fill="white" transform="translate(0 0.189941)"/>
</clipPath>
<clipPath id="clip2_3_237">
<rect width="180" height="122.727" fill="white" transform="translate(0 0.686523)"/>
</clipPath>
</defs>
</svg>
