
<svg xmlns="http://www.w3.org/2000/svg" width="64" height="64" viewBox="0 0 24 24">
  <rect width="100%" height="100%" fill="white"/>
  <g transform="rotate(180 12 12)">
    <path fill="#cccccc" d="M7.17 6C5.22 6 3.6 7.6 3.6 9.55c0 1.95 1.59 3.55 3.55 3.55.46 0 .9-.09 1.31-.25-.15 1.66-.72 2.82-1.69 3.52a.6.6 0 0 0 .36 1.08.6.6 0 0 0 .36-.12c1.55-1.09 2.43-2.94 2.43-5.43V6H7.17zm9.66 0c-1.95 0-3.55 1.6-3.55 3.55 0 1.95 1.59 3.55 3.55 3.55.46 0 .9-.09 1.31-.25-.15 1.66-.72 2.82-1.69 3.52a.6.6 0 0 0 .36 1.08.6.6 0 0 0 .36-.12c1.55-1.09 2.43-2.94 2.43-5.43V6h-2.77z"/>
  </g>
</svg>
