<svg width="180" height="125" viewBox="0 0 180 125" fill="none" xmlns="http://www.w3.org/2000/svg">
<g clip-path="url(#clip0_3_293)">
<g clip-path="url(#clip1_3_293)">
<g clip-path="url(#clip2_3_293)">
<path d="M49.091 46.7305C49.0844 50.4416 49.3651 54.1476 49.9305 57.8153H60.9866V46.7305H49.091ZM64.4597 46.7305V57.8153H75.5183C76.0838 54.1476 76.3634 50.4415 76.3545 46.7305H64.4597ZM50.5638 61.3171C52.561 70.781 56.4097 77.8443 60.9825 79.3171V61.3171H50.5638ZM64.4557 61.3171V79.3171C69.0285 77.8443 72.878 70.7793 74.8744 61.3171H64.4557ZM89.4102 61.1723C88.7335 61.1798 88.0597 61.0821 87.413 60.8826C86.7398 60.667 86.0976 60.3645 85.5026 59.9826L85.8789 57.5518H85.9656C86.4981 57.9805 87.1069 58.3044 87.7599 58.5066C88.295 58.6693 88.8502 58.7569 89.4095 58.7668C90.8568 58.7668 91.58 58.217 91.58 57.146C91.5816 56.7835 91.4704 56.4295 91.2617 56.1331C90.9645 55.7572 90.5893 55.4502 90.1621 55.2331L88.426 54.2513C87.5798 53.8315 86.8455 53.2165 86.2839 52.457C85.8578 51.8249 85.6356 51.0773 85.6474 50.315C85.6214 49.777 85.7172 49.2399 85.9277 48.7441C86.1382 48.2482 86.458 47.8063 86.8632 47.4514C87.7918 46.7189 88.9548 46.3488 90.1359 46.4098C91.3462 46.404 92.5356 46.7239 93.5797 47.336L93.2016 49.685H93.1198C92.6904 49.3873 92.2098 49.1715 91.702 49.0484C91.2017 48.9139 90.6859 48.8457 90.1679 48.8455C88.8948 48.8455 88.2574 49.3364 88.2574 50.2929C88.2614 50.6366 88.3727 50.9704 88.5757 51.2477C88.9352 51.6433 89.3666 51.9668 89.8471 52.2009L91.3829 53.0395C92.2121 53.4468 92.9352 54.0412 93.4954 54.7757C93.9435 55.4421 94.1761 56.2302 94.1614 57.0331C94.1894 57.6096 94.0868 58.1849 93.8612 58.7162C93.6357 59.2475 93.293 59.721 92.8589 60.1013C91.8837 60.8734 90.6562 61.2551 89.4151 61.1723H89.4102ZM98.1795 60.8253C97.7169 60.178 97.3738 59.4532 97.1666 58.685C96.9251 57.7889 96.8084 56.8639 96.8197 55.9359V53.5902H95.1702V51.3942H96.8197V48.587H99.4248V51.3942H101.654L101.277 53.5934H99.3953V55.7355C99.3749 56.6811 99.522 57.6229 99.8298 58.5173C100.118 59.3149 100.539 60.0583 101.074 60.7165V60.8319H98.1803L98.1795 60.8253ZM105.473 60.9988C104.682 61.051 103.903 60.7913 103.302 60.2755C103.024 60.0143 102.806 59.6945 102.666 59.3393C102.526 58.984 102.467 58.6021 102.492 58.2211C102.477 57.8218 102.552 57.4242 102.712 57.0583C102.873 56.6923 103.114 56.3676 103.418 56.1086C104.158 55.5569 105.044 55.2348 105.965 55.1824L108.599 54.9222V54.8935C108.616 54.6805 108.585 54.4664 108.51 54.2664C108.435 54.0664 108.317 53.8853 108.165 53.7358C107.708 53.42 107.155 53.2751 106.602 53.3267C105.535 53.3357 104.481 53.5623 103.505 53.9927H103.389L103.765 51.764C104.245 51.5826 104.737 51.4374 105.238 51.3296C105.848 51.2117 106.469 51.1536 107.09 51.1561C107.65 51.1056 108.215 51.1664 108.751 51.3349C109.287 51.5034 109.785 51.7763 110.216 52.1379C110.566 52.5293 110.833 52.9873 111.002 53.4846C111.171 53.9819 111.237 54.5082 111.198 55.0318V58.0452C111.192 58.5302 111.23 59.0146 111.313 59.4925C111.359 59.9145 111.476 60.3256 111.66 60.7083V60.8237H109.2C109.107 60.6002 109.039 60.3673 108.997 60.1291C108.939 59.8395 108.91 59.5793 108.881 59.3477H108.766C108.478 59.8507 108.044 60.2544 107.522 60.5054C106.89 60.8399 106.185 61.0088 105.47 60.9964L105.473 60.9988ZM105.154 58.0182C105.148 58.1456 105.168 58.2728 105.213 58.3923C105.258 58.5117 105.326 58.6208 105.415 58.7128C105.666 58.9211 105.989 59.0248 106.315 59.0025C106.909 59.0206 107.487 58.814 107.935 58.424C108.146 58.236 108.313 58.0035 108.423 57.7433C108.533 57.4831 108.584 57.2016 108.572 56.9193V56.6878L106.575 56.9193C106.19 56.9483 105.816 57.0567 105.475 57.2376C105.366 57.3358 105.28 57.4571 105.224 57.5928C105.168 57.7284 105.143 57.8749 105.151 58.0214L105.154 58.0182ZM120.494 60.8253V59.4123H120.378C120.094 59.9327 119.661 60.3559 119.134 60.6273C118.562 60.9237 117.926 61.073 117.282 61.0618C116.505 61.0844 115.739 60.873 115.083 60.455C114.428 60.037 113.913 59.4317 113.606 58.7177C113.245 57.8976 113.067 57.0086 113.085 56.1126C113.067 55.2167 113.245 54.3277 113.606 53.5075C113.926 52.8027 114.436 52.2013 115.079 51.7714C115.737 51.3591 116.502 51.1479 117.278 51.1635C117.879 51.1509 118.473 51.2798 119.015 51.5398C119.505 51.7736 119.924 52.1329 120.23 52.5813H120.375V46.7305H123.009V60.8253H120.494ZM118.152 58.7996C118.475 58.8105 118.796 58.7485 119.092 58.6181C119.387 58.4878 119.65 58.2925 119.86 58.0468C120.305 57.5015 120.531 56.8106 120.496 56.1077C120.541 55.4036 120.313 54.7092 119.86 54.1686C119.646 53.9301 119.382 53.7418 119.087 53.6173C118.791 53.4928 118.472 53.4352 118.152 53.4486C117.831 53.4299 117.51 53.4854 117.214 53.6108C116.918 53.7362 116.655 53.9283 116.445 54.1719C115.988 54.7206 115.76 55.4236 115.808 56.1355C115.764 56.8396 115.992 57.5337 116.445 58.0746C116.656 58.3162 116.919 58.5073 117.214 58.6335C117.509 58.7597 117.828 58.8178 118.149 58.8037L118.152 58.7996ZM127.443 60.8253C126.979 60.1783 126.635 59.4534 126.427 58.685C126.186 57.7889 126.069 56.8639 126.08 55.9359V53.5902H124.431V51.3942H126.08V48.587H128.685V51.3942H130.916L130.539 53.5934H128.687V55.7355C128.667 56.6811 128.814 57.6229 129.122 58.5173C129.41 59.3149 129.831 60.0584 130.366 60.7165V60.8319H127.443V60.8253ZM91.7518 78.8033H88.5667C88.183 77.9535 87.8448 77.0839 87.5538 76.1982C87.1486 75.0686 86.801 73.9192 86.5123 72.7544C86.1653 71.4813 85.8756 70.1788 85.6122 68.7895C85.3534 67.4414 85.1794 66.0784 85.091 64.7085H87.9547C88.0414 65.9529 88.2148 67.2554 88.4455 68.6152C88.6763 69.9751 88.9365 71.2776 89.2555 72.5802C89.5738 73.8532 89.8921 75.0405 90.2374 76.1115H90.3822L93.2459 66.5608H95.3584L98.2221 76.1115H98.3669C98.7138 75.0405 99.0329 73.8541 99.3217 72.5802C99.6105 71.3062 99.8715 69.9751 100.103 68.6152C100.335 67.2554 100.479 65.9529 100.594 64.7085H103.401C103.299 66.077 103.125 67.4393 102.88 68.7895C102.62 70.1502 102.33 71.4813 101.98 72.7544C101.63 74.0275 101.285 75.1566 100.938 76.1982C100.562 77.2397 100.244 78.1086 99.9255 78.8033H96.7419L94.3692 70.8734H94.1663L91.7355 78.8033H91.7518ZM106.657 67.8634C106.433 67.8734 106.21 67.8375 106.001 67.7579C105.792 67.6782 105.601 67.5565 105.441 67.4003C105.288 67.2497 105.168 67.0691 105.088 66.8699C105.008 66.6706 104.971 66.457 104.978 66.2425C104.968 66.0277 105.004 65.8132 105.084 65.6136C105.164 65.4139 105.286 65.2336 105.441 65.0848C105.772 64.7807 106.207 64.615 106.657 64.6217C106.88 64.6117 107.103 64.6476 107.313 64.7272C107.522 64.8069 107.712 64.9286 107.872 65.0848C108.028 65.2334 108.15 65.4136 108.23 65.6134C108.31 65.8131 108.346 66.0277 108.336 66.2425C108.343 66.4571 108.306 66.6708 108.226 66.8701C108.146 67.0694 108.026 67.25 107.872 67.4003C107.541 67.7043 107.106 67.8695 106.657 67.8617V67.8634ZM105.326 78.8033V69.3393H107.959V78.8033H105.326ZM114.847 79.0348C113.923 79.0604 113.007 78.8512 112.185 78.4269C111.456 78.0444 110.86 77.4488 110.478 76.7194C110.057 75.9168 109.848 75.0202 109.87 74.1142C109.84 73.1765 110.06 72.2476 110.506 71.4224C110.908 70.6976 111.511 70.1045 112.242 69.7149C113.017 69.3044 113.883 69.0954 114.76 69.107C115.36 69.0754 115.96 69.1728 116.519 69.3924C117.078 69.612 117.583 69.9488 118.002 70.3801C118.828 71.3643 119.242 72.6291 119.159 73.9114V74.4898L112.647 75.2131C112.711 75.468 112.826 75.7072 112.986 75.9162C113.145 76.1252 113.345 76.2997 113.574 76.4289C114.089 76.6717 114.654 76.7905 115.223 76.7758C115.847 76.7684 116.469 76.6908 117.075 76.5443C117.562 76.4257 118.03 76.2407 118.466 75.9945H118.611L118.235 78.2518C117.761 78.4715 117.268 78.646 116.762 78.773C116.141 78.949 115.497 79.0366 114.852 79.0332L114.847 79.0348ZM114.703 71.2203C114.437 71.2091 114.171 71.2521 113.923 71.3466C113.674 71.4411 113.447 71.5852 113.255 71.7702C112.839 72.2112 112.593 72.7855 112.561 73.391L116.584 72.9279C116.546 72.4429 116.329 71.9892 115.976 71.6548C115.614 71.3672 115.164 71.214 114.702 71.2211L114.703 71.2203ZM120.983 78.8033V69.3393H123.356V70.9635H123.471C123.718 70.407 124.133 69.9416 124.657 69.6323C125.239 69.3014 125.899 69.1319 126.568 69.1413C127.056 69.1204 127.544 69.2082 127.994 69.3983C128.445 69.5885 128.847 69.8763 129.173 70.241C129.856 71.1125 130.196 72.2041 130.128 73.3092V78.8368H127.494V73.6487C127.494 72.176 126.886 71.42 125.67 71.42C125.391 71.4141 125.113 71.4709 124.859 71.5861C124.604 71.7013 124.378 71.8721 124.198 72.086C123.808 72.5776 123.612 73.1956 123.648 73.8222V78.8294H120.985L120.983 78.8033Z" fill="white"/>
</g>
</g>
</g>
<defs>
<clipPath id="clip0_3_293">
<rect width="180" height="123.72" fill="white" transform="translate(0 0.910156)"/>
</clipPath>
<clipPath id="clip1_3_293">
<rect width="180" height="123.72" fill="white" transform="translate(0 0.910156)"/>
</clipPath>
<clipPath id="clip2_3_293">
<rect width="180" height="122.727" fill="white" transform="translate(0 1.40674)"/>
</clipPath>
</defs>
</svg>
