<svg width="180" height="125" viewBox="0 0 180 125" fill="none" xmlns="http://www.w3.org/2000/svg">
<g clip-path="url(#clip0_3_286)">
<g clip-path="url(#clip1_3_286)">
<g clip-path="url(#clip2_3_286)">
<path fill-rule="evenodd" clip-rule="evenodd" d="M148.688 57.043C148.688 57.043 150.591 48.0896 150.6 48.043H138.5C138.494 48.0749 135.984 59.7823 135.974 59.8313H138.971C138.976 59.8011 140.899 50.8313 140.899 50.8313H147.012L145.081 59.8313H154.158L152.951 65.4645H143.921C143.915 65.4964 142.121 73.8828 142.121 73.8828H135.281C135.272 73.9147 134.696 76.6646 134.686 76.7104H144.52C144.529 76.6785 146.333 68.2709 146.333 68.2709H155.328C155.336 68.239 157.727 57.0921 157.737 57.0446L148.688 57.043ZM133.437 57.0504H122.116L121.515 59.8207H125.571L122.96 71.9863H126.194L128.797 59.8207H132.832L133.437 57.0504ZM106.175 64.5187C105.632 66.9266 104.668 69.4368 101.939 69.4368C99.3083 69.4368 98.9663 66.9684 99.4883 64.5187C100.031 62.1108 100.995 59.6006 103.725 59.6006C106.354 59.6006 106.697 62.0699 106.175 64.5187ZM104.006 56.8908C98.8281 56.8908 96.8587 60.4033 96.0381 64.5187C95.1945 68.6342 96.9381 72.1466 101.657 72.1466C106.836 72.1466 108.806 68.6342 109.627 64.5187C110.47 60.4033 108.727 56.8908 104.006 56.8908ZM58.1726 57.0545H54.9408L51.7294 71.9895H54.9629L58.1726 57.0545ZM92.0814 62.2532C92.0015 62.7551 91.7932 63.2278 91.4767 63.6253C91.1601 64.0229 90.7461 64.3318 90.2748 64.522C89.9025 64.6299 89.5169 64.6849 89.1293 64.6856H87.6247L88.6696 59.8076H90.0735C90.3931 59.797 90.7123 59.837 91.0193 59.9263C91.8212 60.1865 92.3628 60.9293 92.083 62.254M91.6011 57.1551C91.1157 57.0862 90.626 57.0529 90.1357 57.0553H86.0636L82.8507 71.9887H86.0636L87.0454 67.4331H88.915C89.674 67.4522 90.4316 67.3576 91.1626 67.1524C92.2059 66.8304 93.1418 66.2304 93.8701 65.4169C94.5984 64.6034 95.0916 63.6071 95.2968 62.5346C95.469 61.9352 95.5065 61.3051 95.4065 60.6895C95.3066 60.0739 95.0717 59.4881 94.7187 58.974C94.3657 58.4598 93.9034 58.0301 93.3648 57.7156C92.8262 57.4012 92.2248 57.2098 91.6036 57.1551M53.5204 57.0545H50.1479L45.8115 67.6908L45.6921 57.0545H41.8376L37.7467 67.6736L37.462 57.0545H34.2874L35.1506 71.9895H38.6451L43.0633 61.1896L43.465 71.9895H46.9971L53.5204 57.0545ZM116.015 59.8845C116.588 59.8299 117.163 59.8099 117.739 59.8248H120.17L120.771 57.0536H118.062C117.164 57.0389 116.267 57.0725 115.373 57.1543C114.263 57.2245 113.222 57.7171 112.464 58.5309C111.706 59.3447 111.288 60.4178 111.297 61.5299C111.297 63.3356 112.321 64.18 113.384 64.9221L115.11 66.1265C115.507 66.3746 115.86 66.687 116.155 67.051C116.313 67.2503 116.398 67.4983 116.395 67.753C116.406 68.0419 116.312 68.325 116.132 68.5507C115.562 69.0178 114.846 69.2719 114.109 69.2691C112.781 69.3307 111.453 69.1411 110.195 68.7102L110.174 68.7782L109.21 71.5076C110.628 71.9376 112.105 72.1411 113.586 72.1106C117.62 72.0902 119.968 70.3237 119.968 67.4527C119.968 66.007 118.964 65.0432 117.941 64.2806L116.059 62.8766C115.278 62.2941 114.756 61.8948 114.756 61.2296C114.746 60.8839 114.873 60.5484 115.11 60.2964C115.347 60.0443 115.674 59.8963 116.02 59.8845M74.3612 59.8845C74.9346 59.8299 75.5109 59.8099 76.0867 59.8248H78.52L79.1213 57.0536H76.4099C75.5126 57.0389 74.6151 57.0725 73.7214 57.1543C72.6115 57.2245 71.5707 57.7171 70.8127 58.5309C70.0548 59.3447 69.6373 60.4178 69.646 61.5299C69.646 63.3356 70.6695 64.18 71.7348 64.9221L73.4612 66.1265C73.8579 66.3742 74.2103 66.6867 74.5035 67.051C74.6646 67.2493 74.7514 67.4976 74.749 67.753C74.7599 68.0423 74.6654 68.3258 74.4831 68.5507C73.9119 69.0204 73.1942 69.2749 72.4548 69.2699C71.127 69.3319 69.7996 69.1423 68.5423 68.7111L67.9278 71.6017L67.9213 71.6279C69.2301 71.9671 70.5784 72.1297 71.9303 72.1115C75.9648 72.091 78.3121 70.3245 78.3121 67.4535C78.3121 66.0078 77.3074 65.044 76.2847 64.2815L74.3972 62.8775C73.615 62.2949 73.093 61.8956 73.093 61.2305C73.0833 60.8846 73.2109 60.549 73.4479 60.2969C73.6849 60.0449 74.0121 59.8969 74.3579 59.8853M63.7453 59.8853C64.3189 59.8289 64.8955 59.8085 65.4716 59.824H67.9L68.5014 57.0553H65.7915C64.8942 57.0405 63.9967 57.0741 63.103 57.1559C61.993 57.2257 60.9519 57.7182 60.1939 58.5321C59.4359 59.346 59.0185 60.4194 59.0276 61.5315C59.0276 63.3373 60.0512 64.1808 61.1164 64.9237L62.8428 66.1281C63.24 66.3751 63.5925 66.6877 63.8852 67.0526C64.0462 67.2509 64.133 67.4992 64.1306 67.7546C64.142 68.044 64.0481 68.3277 63.8664 68.5532C63.2959 69.0197 62.5807 69.2731 61.8438 69.2699C60.5161 69.3322 59.1886 69.1429 57.9313 68.7119L57.3168 71.6026L57.3103 71.6287C58.6191 71.9677 59.9674 72.13 61.3193 72.1115C65.3538 72.091 67.7011 70.3245 67.7011 67.4552C67.7011 66.0086 66.6964 65.0448 65.6737 64.2823L63.7862 62.8734C63.0024 62.29 62.4771 61.8915 62.4771 61.2272C62.4674 60.8813 62.595 60.5457 62.832 60.2936C63.069 60.0416 63.3962 59.8936 63.742 59.8821M28.5323 59.8821C29.106 59.8257 29.6825 59.8052 30.2587 59.8207H32.6887L33.2893 57.052H30.5745C29.6775 57.0373 28.7802 57.0709 27.8868 57.1526C26.7766 57.2223 25.7354 57.7147 24.9772 58.5286C24.219 59.3425 23.8015 60.416 23.8106 61.5283C23.8106 63.334 24.835 64.1776 25.9003 64.9205L27.6266 66.1248C28.0233 66.3725 28.3757 66.685 28.669 67.0494C28.8298 67.2478 28.9166 67.4959 28.9144 67.7513C28.9255 68.0406 28.832 68.3241 28.651 68.5499C28.0803 69.0161 27.3654 69.2694 26.6285 69.2666C25.3008 69.3289 23.9732 69.1396 22.7159 68.7086L22.0998 71.5993L22.0949 71.6254C23.4037 71.9648 24.752 72.1271 26.104 72.1082C30.1392 72.0877 32.4858 70.3213 32.4858 67.4519C32.4858 66.0054 31.4811 65.0416 30.4575 64.279L28.5757 62.8701C27.7935 62.2867 27.2715 61.8883 27.2715 61.2239C27.2618 60.8781 27.3894 60.5424 27.6265 60.2904C27.8635 60.0383 28.1906 59.8903 28.5364 59.8788" fill="white"/>
</g>
</g>
</g>
<defs>
<clipPath id="clip0_3_286">
<rect width="180" height="123.72" fill="white" transform="translate(0 0.910156)"/>
</clipPath>
<clipPath id="clip1_3_286">
<rect width="180" height="123.72" fill="white" transform="translate(0 0.910156)"/>
</clipPath>
<clipPath id="clip2_3_286">
<rect width="180" height="122.727" fill="white" transform="translate(0 1.40674)"/>
</clipPath>
</defs>
</svg>
