<svg width="73" height="73" viewBox="0 0 73 73" fill="none" xmlns="http://www.w3.org/2000/svg">
<g clip-path="url(#clip0_3_181)">
<g clip-path="url(#clip1_3_181)">
<path d="M12.2544 10.7402C12.2544 10.9592 12.1894 11.1733 12.0677 11.3554C11.946 11.5376 11.7731 11.6795 11.5707 11.7633C11.3683 11.8472 11.1457 11.8691 10.9308 11.8264C10.716 11.7836 10.5187 11.6782 10.3638 11.5233C10.2089 11.3684 10.1034 11.171 10.0607 10.9562C10.0179 10.7414 10.0399 10.5187 10.1237 10.3163C10.2075 10.114 10.3495 9.941 10.5316 9.81931C10.7137 9.69762 10.9278 9.63266 11.1469 9.63266C11.4406 9.63266 11.7223 9.74934 11.93 9.95704C12.1377 10.1647 12.2544 10.4464 12.2544 10.7402ZM48.2544 29.5701H23.885V14.0633H48.2544V29.5701ZM46.9453 15.3724H25.1941V28.261H46.9453V15.3724ZM5.60812 6.86328H16.685V67.7858H5.60812V6.86328ZM6.91721 66.4767H15.3759V63.4579H12.2537V62.1488H15.3759V59.0273H12.2537V57.7182H15.3759V54.5973H12.2537V53.2882H15.3759V50.166H12.2537V48.857H15.3759V45.7354H12.2537V44.4263H15.3759V41.3042H12.2537V39.9951H15.3759V36.8735H12.2537V35.5644H15.3759V32.4423H12.2537V31.1332H15.3759V28.0123H12.2537V26.7032H15.3759V23.5817H12.2537V22.2726H15.3759V19.1504H12.2537V17.8413H15.3759V14.7198H12.2537V13.4107H15.3759V8.17434H6.91721V66.4767ZM66.5352 12.4034V56.2114L60.9971 67.7877L55.4583 56.2114V12.4034C55.4583 10.9345 56.0418 9.52575 57.0805 8.48709C58.1191 7.44843 59.5279 6.86492 60.9967 6.86492C62.4656 6.86492 63.8744 7.44843 64.913 8.48709C65.9517 9.52575 66.5352 10.9345 66.5352 12.4034ZM56.7726 12.3032H65.2209C65.197 11.1987 64.7415 10.1474 63.952 9.37467C63.1624 8.60193 62.1015 8.1692 60.9967 8.1692C59.892 8.1692 58.8311 8.60193 58.0415 9.37467C57.2519 10.1474 56.7965 11.1987 56.7726 12.3032ZM56.7674 54.185L58.1269 53.1305V19.1452H56.7674V54.185ZM62.6773 61.2423H59.3162L60.9971 64.7546L62.6773 61.2423ZM65.2261 55.8226L63.1237 54.3538L60.7955 56.0844L58.6525 54.3826L56.7674 55.8455V55.9175L58.6905 59.9364H63.3037L65.2261 55.9175V55.8226ZM60.8223 54.433L62.5575 53.1429V19.1452H59.436V53.3249L60.8223 54.433ZM65.2261 19.153H63.8666V53.2791L65.2261 54.2282V19.153ZM65.2261 13.6149H56.7674V17.8439H65.2261V13.6149ZM23.8896 36.8762H48.259V35.5671H23.8896V36.8762ZM37.7352 33.553V32.2439H23.8896V33.553H37.7352ZM51.5814 12.7588V61.8994C51.5792 63.2855 51.0886 64.6265 50.1958 65.6868C49.3031 66.7472 48.0653 67.459 46.6998 67.6974L46.6599 67.7039C46.3397 67.7593 46.0155 67.7882 45.6905 67.7903H26.4567C26.1318 67.7882 25.8075 67.7593 25.4873 67.7039L25.4474 67.6974C24.0819 67.459 22.8442 66.7472 21.9514 65.6868C21.0587 64.6265 20.5681 63.2855 20.5658 61.8994V12.7588C20.5675 11.1969 21.1887 9.69957 22.2931 8.59518C23.3975 7.4908 24.8949 6.8696 26.4567 6.86786H45.6905C47.251 6.87046 48.7468 7.49141 49.8504 8.59472C50.9539 9.69802 51.5752 11.1937 51.5782 12.7542L51.5814 12.7588ZM46.9492 59.3565H25.1941V65.777C25.1941 65.9506 25.263 66.117 25.3858 66.2398C25.5086 66.3625 25.675 66.4315 25.8486 66.4315H46.2907C46.4643 66.4315 46.6308 66.3625 46.7536 66.2398C46.8763 66.117 46.9453 65.9506 46.9453 65.777L46.9492 59.3565ZM50.2723 12.7588C50.2708 11.5441 49.7876 10.3796 48.9286 9.52066C48.0697 8.66174 46.9052 8.17851 45.6905 8.17695H41.612V8.88125C41.6119 8.96916 41.6031 9.05686 41.5859 9.14306C41.5255 9.43875 41.3648 9.7045 41.1311 9.89535C40.8973 10.0862 40.6047 10.1904 40.303 10.1903H31.2905C30.9433 10.1903 30.6104 10.0524 30.3649 9.80691C30.1194 9.56141 29.9814 9.22844 29.9814 8.88125V8.17695H26.4567C25.242 8.17851 24.0775 8.66174 23.2186 9.52066C22.3597 10.3796 21.8764 11.5441 21.8749 12.7588V61.8994C21.8753 62.648 22.059 63.3851 22.4101 64.0462C22.7612 64.7073 23.269 65.2723 23.8889 65.6919V59.3565C23.8889 59.0093 24.0268 58.6764 24.2723 58.4309C24.5179 58.1854 24.8508 58.0474 25.198 58.0474H46.9492C47.2964 58.0474 47.6294 58.1854 47.8749 58.4309C48.1204 58.6764 48.2583 59.0093 48.2583 59.3565V65.6919C48.8783 65.2723 49.386 64.7073 49.7371 64.0462C50.0882 63.3851 50.272 62.648 50.2723 61.8994V12.7588ZM23.8896 40.1999H48.259V38.8908H23.8896V40.1999ZM23.8896 43.5224H48.259V42.2133H23.8896V43.5224ZM23.8896 47.2978H36.6225V52.8366H23.8837L23.8896 47.2978ZM25.1987 51.5275H35.3134V48.5997H25.1928L25.1987 51.5275Z" fill="#2667FF"/>
</g>
</g>
<defs>
<clipPath id="clip0_3_181">
<rect width="72" height="72" fill="white" transform="translate(0.0700073 0.77002)"/>
</clipPath>
<clipPath id="clip1_3_181">
<rect width="72" height="72" fill="white" transform="translate(0.0700073 0.77002)"/>
</clipPath>
</defs>
</svg>
