<svg width="73" height="73" viewBox="0 0 73 73" fill="none" xmlns="http://www.w3.org/2000/svg">
<g clip-path="url(#clip0_3_165)">
<g clip-path="url(#clip1_3_165)">
<path d="M31.5461 43.9278L27.156 39.5378L31.5461 35.1478L32.4716 36.0733L29.0071 39.5378L32.4716 43.0023L31.5461 43.9278ZM46.0253 39.5378L41.6352 35.1478L40.7097 36.0733L44.1742 39.5378L40.7097 43.0023L41.6352 43.9278L46.0253 39.5378ZM39.3921 33.7123L38.1622 33.2646L33.6845 45.5668L34.915 46.0139L39.3921 33.7123ZM68.6627 18.4346V53.78C68.6627 54.4744 68.3869 55.1404 67.8959 55.6314C67.4049 56.1224 66.7389 56.3982 66.0445 56.3982H7.13545C6.44107 56.3982 5.77512 56.1224 5.28412 55.6314C4.79312 55.1404 4.51727 54.4744 4.51727 53.78V18.4346C4.51727 17.7402 4.79312 17.0743 5.28412 16.5833C5.77512 16.0922 6.44107 15.8164 7.13545 15.8164H66.0445C66.3886 15.8164 66.7293 15.8842 67.0471 16.016C67.3649 16.1477 67.6536 16.3408 67.8968 16.5842C68.14 16.8276 68.3328 17.1165 68.4642 17.4345C68.5956 17.7524 68.6631 18.0932 68.6627 18.4372V18.4346ZM5.82636 18.4346V22.3619H67.3536V18.4346C67.3536 18.0874 67.2157 17.7544 66.9702 17.5089C66.7247 17.2634 66.3917 17.1255 66.0445 17.1255H7.13545C6.96332 17.1255 6.79288 17.1594 6.63388 17.2254C6.47488 17.2913 6.33046 17.388 6.20886 17.5098C6.08727 17.6317 5.99089 17.7763 5.92526 17.9354C5.85963 18.0946 5.82602 18.2651 5.82636 18.4372V18.4346ZM67.3536 53.78V23.671H5.82636V53.78C5.82636 54.1272 5.96429 54.4602 6.20979 54.7057C6.45529 54.9512 6.78826 55.0891 7.13545 55.0891H66.0445C66.3913 55.0891 66.7239 54.9516 66.9693 54.7066C67.2147 54.4617 67.3529 54.1294 67.3536 53.7827V53.78ZM7.79 19.7437C7.79 19.9379 7.84758 20.1277 7.95547 20.2891C8.06335 20.4506 8.21669 20.5764 8.39609 20.6508C8.5755 20.7251 8.77291 20.7445 8.96336 20.7066C9.15382 20.6687 9.32876 20.5752 9.46607 20.4379C9.60338 20.3006 9.69689 20.1257 9.73477 19.9352C9.77265 19.7448 9.75321 19.5474 9.6789 19.368C9.60459 19.1885 9.47875 19.0352 9.31729 18.9273C9.15583 18.8194 8.966 18.7619 8.77182 18.7619C8.64266 18.7619 8.51478 18.7873 8.39549 18.8368C8.2762 18.8864 8.16785 18.9589 8.07664 19.0504C7.98544 19.1418 7.91317 19.2503 7.86398 19.3698C7.8148 19.4892 7.78966 19.6171 7.79 19.7463V19.7437ZM11.0627 19.7437C11.0627 19.9379 11.1203 20.1277 11.2282 20.2891C11.3361 20.4506 11.4894 20.5764 11.6688 20.6508C11.8482 20.7251 12.0456 20.7445 12.2361 20.7066C12.4265 20.6687 12.6015 20.5752 12.7388 20.4379C12.8761 20.3006 12.9696 20.1257 13.0075 19.9352C13.0454 19.7448 13.0259 19.5474 12.9516 19.368C12.8773 19.1885 12.7515 19.0352 12.59 18.9273C12.4286 18.8194 12.2387 18.7619 12.0445 18.7619C11.9154 18.7619 11.7875 18.7873 11.6682 18.8368C11.5489 18.8864 11.4406 18.9589 11.3494 19.0504C11.2582 19.1418 11.1859 19.2503 11.1367 19.3698C11.0875 19.4892 11.0624 19.6171 11.0627 19.7463V19.7437ZM14.3355 19.7437C14.3355 19.9379 14.393 20.1277 14.5009 20.2891C14.6088 20.4506 14.7621 20.5764 14.9415 20.6508C15.121 20.7251 15.3184 20.7445 15.5088 20.7066C15.6993 20.6687 15.8742 20.5752 16.0115 20.4379C16.1488 20.3006 16.2423 20.1257 16.2802 19.9352C16.3181 19.7448 16.2987 19.5474 16.2244 19.368C16.15 19.1885 16.0242 19.0352 15.8627 18.9273C15.7013 18.8194 15.5115 18.7619 15.3173 18.7619C15.1881 18.7619 15.0602 18.7873 14.9409 18.8368C14.8217 18.8864 14.7133 18.9589 14.6221 19.0504C14.5309 19.1418 14.4586 19.2503 14.4094 19.3698C14.3603 19.4892 14.3351 19.6171 14.3355 19.7463V19.7437Z" fill="#2667FF"/>
</g>
</g>
<defs>
<clipPath id="clip0_3_165">
<rect width="72" height="72" fill="white" transform="translate(0.589996 0.109863)"/>
</clipPath>
<clipPath id="clip1_3_165">
<rect width="72" height="72" fill="white" transform="translate(0.589996 0.109863)"/>
</clipPath>
</defs>
</svg>
