<svg width="180" height="124" viewBox="0 0 180 124" fill="none" xmlns="http://www.w3.org/2000/svg">
<g clip-path="url(#clip0_3_251)">
<g clip-path="url(#clip1_3_251)">
<g clip-path="url(#clip2_3_251)">
<path d="M23.0572 56.6535V59.2127H27.6194L22.1163 68.2774H32.0736V65.7181H27.2037L32.6749 56.6535H23.0572ZM51.1691 62.0789V62.0486C51.5946 61.8256 51.9438 61.4807 52.172 61.0579C52.4001 60.6352 52.4968 60.1539 52.4496 59.6758C52.4496 57.4545 51.0587 56.6551 48.996 56.6551H44.6809V68.279H49.3364C51.4637 68.279 53.5435 67.4772 53.5435 65.0399C53.5435 63.4207 52.8349 62.2965 51.1707 62.0797M47.7025 58.9706H47.9177C48.7358 58.9706 49.6751 59.032 49.6751 60.0956C49.6751 61.0815 48.843 61.2206 48.0387 61.2206H47.6992L47.7025 58.9706ZM48.0887 65.9693H47.7025V63.4714H48.0118C48.9977 63.4714 50.4925 63.3324 50.4925 64.7364C50.4925 66.016 48.9821 65.9693 48.0887 65.9693ZM57.3799 56.6584H54.3584V68.2823H61.1362V65.723H57.3791L57.3799 56.6584ZM61.9405 56.6584H64.9604V68.2839H61.9405V56.6584ZM74.8489 56.6584V63.7668H74.8178L69.2845 56.6584H66.2572V68.2839H69.2845V61.1609H69.3148L74.8489 68.2839H77.8697V56.6584H74.8489ZM40.3601 62.7776C40.3601 64.2888 40.2521 65.9383 38.3098 65.9383C36.3674 65.9383 36.2643 64.2888 36.2643 62.7776V56.6576H33.2428V63.1933C33.2428 64.6889 33.3041 66.1689 34.4602 67.2948C35.5693 68.1349 36.9225 68.5897 38.3138 68.5897C39.7052 68.5897 41.0584 68.1349 42.1675 67.2948C43.3236 66.1698 43.3857 64.6889 43.3857 63.1933V56.6576H40.3642L40.3601 62.7776ZM37.0056 56.6584H38.0193V59.2603H37.0056V56.6584ZM38.5945 56.6584H39.6082V59.2603H38.5945V56.6584ZM93.6778 57.313C92.4942 56.7058 91.1869 56.3787 89.8568 56.3573C87.4121 56.3573 85.6465 57.8996 85.6465 60.2592C85.6465 62.5109 86.9556 63.0042 88.9495 63.5442C89.6294 63.7291 90.8755 64.022 90.8755 64.8705C90.8755 65.6887 90.0827 66.0421 89.3373 66.0421C88.2857 65.9868 87.2876 65.5607 86.5203 64.8394L85.1605 67.276C86.4293 68.1302 87.9215 68.5917 89.451 68.603C90.6964 68.6383 91.9173 68.2523 92.916 67.5075C93.3505 67.1158 93.6901 66.6302 93.909 66.0877C94.1279 65.5451 94.2203 64.9599 94.1793 64.3763C94.1793 62.4945 92.8702 61.6764 91.1668 61.1994L90.3576 60.9677C89.8078 60.7984 88.9487 60.5366 88.9487 59.8575C88.9487 59.2095 89.7259 58.8863 90.3101 58.8863C91.078 58.9009 91.8189 59.1722 92.4145 59.6571L93.6778 57.313ZM99.8346 59.2168H102.453V56.6576H94.0337V59.2168H96.6568V68.2839H99.8305L99.8346 59.2168ZM109.217 63.5189C109.989 63.3992 110.69 62.9971 111.184 62.3905C111.677 61.7838 111.928 61.0156 111.888 60.2347C111.888 57.7523 110.058 56.6576 107.645 56.6576H102.899V68.2831H106.073V63.8126H106.105L109.1 68.2831H113.057L109.217 63.5189ZM106.076 58.9697H106.382C107.418 58.9697 108.585 59.1546 108.585 60.4187C108.585 61.6828 107.418 61.8686 106.382 61.8686H106.076V58.9697ZM120.684 66.2631L121.479 68.2831H124.862L120.264 56.6576H116.799L112.102 68.2831H115.471L116.312 66.2631H120.684ZM119.827 63.95H117.188L118.497 60.2494H118.531L119.827 63.95ZM128.313 63.4714H128.64C129.676 63.4714 131.246 63.3331 131.246 64.7355C131.246 66.0159 129.659 65.9685 128.721 65.9685H128.312L128.313 63.4714ZM130.031 68.2823C132.265 68.2823 134.449 67.4813 134.449 65.0448C134.449 63.4256 133.704 62.2998 131.956 62.0838V62.0527C132.395 61.8414 132.759 61.5009 132.999 61.0768C133.239 60.6527 133.344 60.1653 133.3 59.6799C133.3 57.4594 131.843 56.6576 129.673 56.6576H125.14V68.2831L130.031 68.2823ZM128.313 58.9697H128.539C129.398 58.9697 130.385 59.0312 130.385 60.0956C130.385 61.0824 129.511 61.2214 128.667 61.2214H128.311L128.313 58.9697ZM142.872 66.2631L143.665 68.2831H147.049L142.45 56.6576H138.985L134.29 68.2831H137.657L138.499 66.2631H142.872ZM142.013 63.95H139.375L140.684 60.2494H140.716L142.013 63.95ZM153.203 61.7999V64.1726H155.794C155.664 65.5144 154.611 66.1935 153.235 66.1935C151.147 66.1935 150.013 64.3575 150.013 62.5534C150.013 60.7787 151.099 58.8822 153.187 58.8822C153.765 58.8736 154.332 59.0476 154.805 59.3798C155.279 59.712 155.636 60.1853 155.825 60.7321L158.837 59.5302C158.35 58.4999 157.565 57.6391 156.584 57.059C155.603 56.4789 154.471 56.206 153.333 56.2755C149.398 56.2755 146.711 58.7587 146.711 62.5371C146.711 66.1927 149.381 68.6735 153.219 68.6735C154.18 68.7234 155.139 68.5421 156.015 68.1449C156.891 67.7477 157.66 67.1462 158.255 66.3907C159.34 64.9401 159.47 63.491 159.501 61.7941L153.203 61.7999ZM22.0901 49.7808H77.8189V53.4961H22.0909L22.0901 49.7808ZM86.0351 49.7808H159.268V53.4961H86.0359L86.0351 49.7808ZM22.0901 71.429H77.8189V75.1444H22.0909L22.0901 71.429ZM86.0351 71.429H159.268V75.1444H86.0359L86.0351 71.429Z" fill="white"/>
</g>
</g>
</g>
<defs>
<clipPath id="clip0_3_251">
<rect width="180" height="123.72" fill="white" transform="translate(0 0.189941)"/>
</clipPath>
<clipPath id="clip1_3_251">
<rect width="180" height="123.72" fill="white" transform="translate(0 0.189941)"/>
</clipPath>
<clipPath id="clip2_3_251">
<rect width="180" height="122.727" fill="white" transform="translate(0 0.686523)"/>
</clipPath>
</defs>
</svg>
